<?xml version="1.0" encoding="utf-8"?>
<!-- Generator: Adobe Illustrator 23.0.5, SVG Export Plug-In . SVG Version: 6.00 Build 0)  -->
<svg version="1.1" id="Capa_1" xmlns="http://www.w3.org/2000/svg" xmlns:xlink="http://www.w3.org/1999/xlink" x="0px" y="0px"
	 viewBox="0 0 475 147.9" style="enable-background:new 0 0 475 147.9;" xml:space="preserve">
<style type="text/css">
	.st0{fill:#636363;}
	.st1{fill:none;stroke:#636363;stroke-width:6;stroke-miterlimit:10;}
</style>
<g>
	<path class="st0" d="M475,76c-5.1,4.6-10.2,9.1-14.4,14.7c-2.3,3.1-5.3,5.5-8.1,8.2c-150.4,0-300.8,0-451.4,0c0-15.5,0-31,0-46.5
		c5-0.9,412.4-1.3,450.4-0.4c6.1,6.1,12.3,12.2,18.4,18.4c1.5,1.5,3.1,2.8,5,3.5C475,74.6,475,75.3,475,76z M83.7,86.9
		C85,82,86.2,77.5,87.7,72c0.6,7.5,1.1,14.1,1.6,20.8c1.8,0,3.7,0,5.7,0c0-3,0.1-5.9,0-8.7c-0.2-2.7-1-5.4-0.9-8.1
		c0.3-6.1-0.8-12-1.4-17.9c-2.2,0-4.3,0-6.6,0c-1.9,6.6-3.8,13.2-5.7,20.1c-1.9-6.9-3.8-13.5-5.7-20.1c-2.2,0-4.4,0-6.6,0
		c-0.4,2.1-1.1,4.1-1.1,6.1c0.3,8.7-1.8,17.3-1.1,26.1c0.1,0.8-0.5,1.6-0.7,2.5c2.3,0,4.5,0,6.8,0c0-3.4,0-6.5,0-9.7
		c0-4.9,0-4.9,1.7-8.8c1.2,4.3,2.3,8.6,3.5,12.7C79.6,86.9,81.6,86.9,83.7,86.9z M422.2,58.1c0,11.9,0,23.3,0,34.8c2,0,3.7,0,5.9,0
		c0-7.3,0-14.6,0-22.8c3.7,8.2,7,15.4,10.2,22.6c2.3,0,4.5,0,6.6,0c0-11.7,0-23.1,0-34.7c-2,0-3.7,0-5.9,0c0,7,0,13.9,0,22
		c-3.7-8.1-6.8-15.1-9.9-22C426.6,58.1,424.5,58.1,422.2,58.1z M160,58c0,11.6,0,23.1,0,34.8c2.1,0,4,0,6,0c0-3.9,0-7.5,0-11.2
		c0-3.5-0.1-7.1,0.2-11.6c3.8,8.4,7,15.6,10.3,22.8c2.2,0,4.3,0,6.4,0c0-11.6,0-23.1,0-34.6c-2,0-3.9,0-5.9,0c0,6.9,0,13.5,0,20.2
		c0,0.1-0.1,0.3-0.3,0.4c-0.1,0.1-0.2,0.1-0.3,0.1c-3.2-7-6.4-14-9.5-20.9C164.5,58,162.5,58,160,58z M417,76.4
		c-0.1-3.5,0.2-6.4-1-9.2c-2-4.6-4.2-8.9-10.1-9.2c-2.2-1.9-4.4-0.4-6.7-0.1c-3,0.5-5.7,2.1-7,4.5c-1.8,3.2-3.7,6.6-3.3,10.6
		c0.2,2,0.1,4,0,6c-0.1,3.8,1.7,7,3.6,10c1.6,2.4,4.1,3.6,7.1,4.4c5.5,1.5,11.6-0.5,14.3-5.4C416.1,84.2,417.6,80.2,417,76.4z
		 M117.1,74.3c3.8-2.8,2.8-7,2.8-11.1c-2-1.8-4.1-3.6-5.8-5.1c-4.6,0-8.8,0-12.9,0c0,11.7,0,23.2,0,34.9c3.5,0,6.8,0,10.2,0
		c5.8,0,9.6-3.9,9.6-9.6c0-1.3,0-2.6,0-4C119.7,77.7,118.5,76.1,117.1,74.3z M300.9,91.6c3.3-2.9,5.3-6.5,6.5-11.2
		c1.3-5.2,0.1-12.3-2.5-16.9c-1.7-2.9-4.9-4.6-8.1-5.5c-2-0.5-4.3-0.1-6.5-0.1c-2.1,0-4.2,0-6.1,0c0,11.9,0,23.4,0,35
		C289.7,92.6,295.1,93.9,300.9,91.6z M255.1,93c4.7,0,9.1,0,13.2,0c1.8-1,3.6-1.7,5-2.9c4-3.2,4.9-7.9,5.7-12.6
		c0.6-3.5-1.4-6.6-1.2-8.5c-1.3-6.4-4.9-9-9.6-10.9c-4.1,0-8.6,0-13.1,0C255.1,69.7,255.1,81.2,255.1,93z M24.7,62.8
		c2.3,0.9,4.6,1.9,7,2.9c0.8-1.6,1.6-3.3,2.4-4.9c-1.6-3.3-5.3-2.4-7.9-3.7c-1.4-0.7-3.3,0.2-5.1,0.7c-4,1.3-7.7,2.8-9.5,7
		C9.8,69.2,8.2,73.6,9,78.3c0.8,4.9,2.3,9.6,6.5,12.8c1.6,1.2,3.5,2,5.1,3c3,0,6,0.5,8-2.2c2.1,1.6,4.2,1.3,6.1,1.1
		c0-6.4,0-12.6,0-18.7c-3,0-5.9,0-8.7,0c0,2,0,3.8,0,5.8c1.3,0,2.4,0,3.7,0c0,1.6,0,3.1,0,5c-1.5,1-3.4,2.2-5.2,3.4
		c-2.2-1.1-4.2-2.1-5.9-3c-1-1.9-1.8-3.5-2.7-5.3c0-2.2,0.2-4.6,0-6.9c-0.3-2.8,1.3-4.9,2.5-7c0.9-1.6,2.9-2.3,5-2.3
		C23.8,63.9,24.1,63.3,24.7,62.8z M213.2,60.6c-1.8-1.9-4.1-2-6.1-2.9c-2.9-1.2-5.2-0.6-7.7,0.2c-2.7,0.9-5.2,2.2-7.2,4.3
		c-1.7,1.7-2,3.9-2.7,5.9c-2.5,6.5-1.5,12.7,1.7,18.7c1.9,3.6,5.2,5.8,8.8,6.9c2.6,0.8,5.8,0.5,8-2.1c2,1.6,4,1.4,6.3,1.1
		c0-6.1,0-12.1,0-18c0-0.1-0.1-0.3-0.2-0.4c-0.1-0.1-0.2-0.2-0.2-0.1c-3,0-5.8,0-8.6,0c0,2,0,3.8,0,5.9c1.3,0,2.6,0,3.8,0
		c0,1.7,0,3,0,4.8c-1.6,1.1-3.4,2.3-4.7,3.2c-0.9,0-1.1,0.1-1.3,0c-0.4-0.2-0.8-0.5-1.2-0.6c-5.3-1.8-7-5.8-6.8-11c0.1-2,0-4,0-5.4
		c1.1-2.1,2-3.8,2.9-5.6c2.2-0.8,4.3-1.6,6.3-2.3c2.3,0.9,4.5,1.8,6.6,2.7C211.4,64.2,212.2,62.6,213.2,60.6z M63,92.7
		c-3.1-11.8-6.2-23.3-9.3-34.7c-2.4,0-4.3,0-6.8,0c-2.1,5.6-3.2,11.5-4.6,17.4c-1.5,5.8-3.8,11.4-4.3,17.5c2.2,0,4,0,5.9,0
		c1.4-2.7,1.8-5.7,2.3-8.7c2.4,0,4.9,0,7.7,0c1.5,2.6,1.7,5.8,2.4,8.9c1.9,0,3.7,0,5.5,0C62.1,93,62.4,92.8,63,92.7z M235,58
		c-3,11.6-6.1,23.1-9.2,34.8c2.2,0,3.9,0,6,0c1.9-2.5,1.5-5.8,2.5-8.8c2.5,0,4.9,0,7.3,0c2.2,2.6,2.2,5.9,2.5,8.7c2.5,0,4.6,0,6.8,0
		C248,81,244.9,69.5,241.9,58C239.6,58,237.7,58,235,58z M344.7,58c-0.2,0-1.3,0.3-1.8-0.1c-2.7-2-5.2-0.7-7.7,0.1
		c-3.8,1.3-7.2,3.3-8.9,7.2c-2.7,6.1-3.2,12.4-0.9,18.5c3.8,10.2,15,13.6,23.5,6.9c-0.7-1.9-1.4-3.7-2.2-5.7
		c-4.1,3.4-8.3,4.1-12.6,0.3c-0.6-1.2-1.3-2.6-2-3.9c-1.5-2.7-0.8-5.7-1-8.6c-0.2-2.6,1.5-4.4,2.5-6.5c0.7-1.5,2.7-2,4.5-2.3
		c0.7-0.1,1.4-0.7,2.1-1c1.9,0.9,3.8,1.8,5.7,2.7c0.7-1.5,1.5-3.2,2.5-5.2C347.3,59.8,346.4,59.2,344.7,58z M365.2,92.9
		c0-9.9,0-19.3,0-28.9c2.6,0,5.1,0,7.4,0c1.7-2.3,1.7-2.3,1-5.8c-7.8,0-15.6,0-23.5,0c0,1.6,0,3.1,0,4.6c2.6,2.6,6.1,0.3,9,1.7
		c0,9.4,0,18.9,0,28.4C361.1,92.9,362.9,92.9,365.2,92.9z M126.1,92.8c6.2,0,12,0,17.8,0c0-1.6,0-3.1,0-4.9c-1-0.3-2-0.8-3-0.8
		c-2.6-0.1-5.2,0-7.9,0c0-9.9,0-19.3,0-28.8c-2.4,0-4.6,0-6.8,0C126.1,69.8,126.1,81.2,126.1,92.8z M383.8,92.9c0-11.9,0-23.3,0-35
		c-2.4,0.2-4.7-0.2-6.7,0.3c0,11.8,0,23.2,0,34.7C379.4,92.9,381.5,92.9,383.8,92.9z M148.2,58.1c0,11.9,0,23.3,0,34.6
		c2.1,0,4,0,5.7,0c0-11.7,0-23.1,0-34.6C151.9,58.1,150.1,58.1,148.2,58.1z M318.8,92.9c0-11.9,0-23.3,0-34.6c-2.1,0-4,0-5.7,0
		c0,11.7,0,23.1,0,34.6C315.1,92.9,316.9,92.9,318.8,92.9z"/>
	<path class="st0" d="M0-1c92.8,0,185.6,0,278.2,0c7.6,7.6,15.1,15.1,22.6,22.6c-7.2,7.7-14.6,15.5-22,23.4c-93,0-185.9,0-278.8,0
		C0,29.6,0,14.3,0-1z M225.8,4c-4.1,2.1-7,4.9-8.7,8.6c-1.7,3.6-1.6,13.7,0,17.5c1.2,2.9,2.7,5.8,5.4,7.7c1.2,0.8,2.8,1.3,4.8,2.1
		c1.6,0,3.9,0,6.1,0c1.2-0.7,2.2-1.6,3.4-1.9c2-0.6,3.4-2.2,4.3-3.8c1.8-3.4,3.5-7,3.1-11.2c-0.2-1.8,0.1-3.7-0.1-5.5
		c-0.3-3.3-1.2-6.5-3.7-8.9c-1.9-1.7-3.8-3.3-5.5-4.8C231.4,4,228.6,4,225.8,4z M249.2,3.9c0,12,0,23.5,0,35.2
		c2.4-0.3,4.7,0.2,7-0.4c0-4.4,0-8.5,0-12.6c1,0,1.8,0,2.5,0c1.9,4.3,3.8,8.6,5.7,13c2.2-0.4,4.5,0.3,6.8-0.4
		c-2.2-4.7-4.3-9.2-6.3-13.6c6.6-7.1,6.3-14.9,0.1-19.6C259.4,3.1,254.3,4.3,249.2,3.9z M51.8,4.1c0,5.2,0,10,0,14.8
		c-3.3,0-6.4,0-9.7,0c0-4.6,0-9,0-13.3c-0.6-0.7-1.1-1.1-1.5-1.5c-1.9,0-3.7,0-5.7,0c0,11.5,0,22.8,0,34.1c0,0.2,0.1,0.3,0.1,0.4
		c0.1,0.1,0.2,0.3,0.1,0.2c2.3,0,4.5,0,6.7,0c0-4.6,0-9.1,0-13.6c3.4,0,6.6,0,10,0c0,4.7,0,9.1,0,13.6c2.1,0,4,0,5.8,0
		c0-11.7,0-23.1,0-34.7C55.9,4.1,54.1,4.1,51.8,4.1z M87.2,4c0,12,0,23.4,0,34.9c2,0,3.7,0,5.7,0c0-3.9,0-7.7,0-11.3
		c0.6-0.6,1.1-1.1,1.6-1.6c0.6,0,1.3,0,2.1,0c2.2,4.1,3,9,5.7,13c2.2,0,4.2,0,6.2,0c0.1,0,0.3-0.2,0.2-0.1
		c-1.2-5.4-5.1-9.8-5.9-15.4c5.4-3.2,4.1-8.3,4.2-12.9c-2.5-4.8-6.5-6.7-11.7-6.5C92.6,4,90,4,87.2,4z M135,38.9
		c-1.5-6-2.8-11.9-4.3-17.7c-1.5-5.8-3.3-11.6-4.9-17.2c-2.3,0-4.3,0-6.6,0c-3,11.5-6.1,23.2-9.2,34.9c2.5,0,4.6,0,7,0
		c0.2-1.6,0-3.1,0.9-4.7c0.7-1.2-0.2-3.3,1.5-4.1c2.3,0,4.4,0,6.9,0c0.9,3,1.8,5.9,2.7,8.7C131.2,38.9,133,38.9,135,38.9z
		 M151.5,4.1c-4.1,0-8.3,0-12.5,0c0,11.5,0,22.8,0,34.1c0,0.1,0.1,0.3,0.2,0.4c0.1,0.1,0.2,0.2,0.2,0.1c2,0,3.8,0,5.7,0
		c0-4,0-7.7,0-11.7c2.6,0,5.1,0,6.6,0c4-1.6,6-3.9,7.4-6.9c0-2,0.1-4,0-6c-0.2-4.2-1.7-7.5-5.9-9.2C152.5,4.7,152,4.4,151.5,4.1z
		 M65.2,4.1c0,11.9,0,23.3,0,34.8c5.6,0,11.1,0,16.6,0c0-1.7,0-3.2,0-5c-3.6,0-7.1,0-10.6,0c0-3.1,0-6,0-9.1c2.7,0,5.1,0,7.4,0
		c0.5-0.5,0.9-0.9,1.3-1.3c0-1.4,0-2.9,0-4.7c-3,0-5.9,0-8.8,0c0-3.1,0-5.9,0-9.1c3.7,0,7.3,0,10.7,0c0-2.1,0-3.9,0-5.8
		C76.2,4.1,70.8,4.1,65.2,4.1z M203.2,38.9c0-4.8,0-9.3,0-13.9c2.6,0,5.1,0,7.6,0c0-2.1,0-4,0-6.1c-2.7,0-5.1,0-7.6,0
		c0-3.1,0-6,0-9.1c3.4,0,6.5,0,9.5,0c0-2.1,0-4,0-5.8c-5.3,0-10.3,0-15.2,0c-0.5,0.5-1,1-1.3,1.3c0,11.2,0,22.3,0,33.5
		C198.4,38.9,200.5,38.9,203.2,38.9z M23.1,38.9c0-9.8,0-19.3,0-29c2.7,0,5.3,0,7.7,0c0-2.1,0-3.9,0-5.6c-7.7,0-15.3,0-22.7,0
		c0,2,0,3.8,0,5.9c2.7,0,5.3,0,8,0c0,9.8,0,19.2,0,28.7C18.4,38.9,20.5,38.9,23.1,38.9z M175,38.9c0-5.1,0-9.7,0-13.4
		c3.3-7.5,6.3-14.2,9.5-21.3c-2.7,0-4.8,0-7.2,0c-1.5,4.1-3.1,8.4-5,13.5c-1.9-4.9-3.7-9.3-5.3-13.5c-2.5,0-4.6,0-7,0
		c2.4,5.5,4.6,10.9,7.1,16.1c1.2,2.6,2.1,5.2,2,8.2c-0.2,3.4,0,6.9,0,10.4C171.1,38.9,172.9,38.9,175,38.9z"/>
	<path class="st0" d="M0,126c1.3-0.5,2.6-1,3.9-1.4C3,124,2.1,123.4,1,122.8c0.7-1.2,1.3-2.4,2-3.5c0.8-1.2,1.6-2.3,2.4-3.4
		c1.2,0.5,2.2,0.9,3.8,1.5c-0.9-1.8-1.5-2.9-2-3.9c2.4-1.4,4.8-2.9,7.3-4.3c0.6,1.2,1.3,2.5,2.2,4.4c0.1-1.8,0.2-3.1,0.4-4.4
		c2.9,0,5.7,0,8.7,0c0.1,0.8,0.3,1.8,0.5,3.3c0.9-1.3,1.6-2.3,2.1-3.1c2.2,1.3,4.4,2.7,6.8,4.1c-0.5,1.1-0.9,2.1-1.7,3.8
		c1.6-0.5,2.6-0.8,3.9-1.3c1.8,1.8,3,4.3,4.6,6.8c-0.9,0.6-1.9,1.1-3.1,1.9c1,0.2,1.8,0.3,2.9,0.5c0,2.8,0,5.7,0,8.6
		c-1,0.2-1.9,0.3-3.2,0.6c1.3,0.9,2.2,1.5,3.3,2.2c-1.3,2.3-2.7,4.8-4.2,7.3c-1.1-0.6-2.3-1.1-4.1-2.1c0.7,1.5,1,2.3,1.5,3.3
		c-1,2.9-4.3,3.3-6.7,5c-0.6-0.9-1.3-1.9-1.9-2.9c-0.5,1.3-1,2.6-1.4,3.9c-2.7,0-5.3,0-8,0c0-1.3,0-2.6,0-4.9
		c-1.2,1.8-1.9,2.8-2.5,3.8c-2.4-1.4-5-2.9-7.4-4.3c0.7-1,1.4-2,2.8-3.9c-2.3,1-3.5,1.6-4.9,2.2c-1.4-2.6-2.6-5.1-3.9-7.4
		c0.9-0.6,1.9-1.3,3.7-2.5c-2.3,0-3.6,0-4.9,0C0,131.3,0,128.6,0,126z M33,129.5c1.4-1.4,2.7-2.7,4-4c-1.7-0.6-3.4-1.3-5.2-1.9
		c0.4-2,0.8-3.8,1.3-6.3c-2.2,1.6-4,2.2-5.6,1.6c-0.7-1.8-1.2-3.3-1.8-5c-1.5,1.5-2.8,2.8-4.6,4.6c-1.3-1.3-2.7-2.7-4-4
		c-0.4,1.3-1,2.9-1.6,4.8c-1.7-0.4-3.3-0.8-5.5-1.3c0.4,2.1,0.7,3.9,1.1,5.8c-1.9,0.7-3.5,1.2-5.1,1.8c1.3,1.3,2.6,2.6,4.3,4.3
		c-1.5,1.2-3,2.4-4.8,3.8c2.1,0.7,3.8,1.3,5.6,1.9c-0.4,1.7-0.7,3.5-1.2,5.6c2.1-0.5,3.9-0.9,5.5-1.2c0.6,1.9,1.2,3.5,1.9,5.6
		c1.6-1.6,3-3,4.4-4.4c1.2,1.2,2.4,2.6,3.8,4c0.7-1.8,1.3-3.5,1.9-5c2-0.9,3.5,2.4,5.6,0.3c-0.5-1.7-2.1-3.4-1-4.8
		c2-0.8,3.4-1.4,5-2C35.6,132.1,34.4,130.9,33,129.5z"/>
	<path class="st0" d="M285.9,112.1c4.6,0,8.7,0,12.8,0c1.8,6,3.7,11.9,5.7,18.5c2-6.6,3.9-12.5,5.7-18.5c4,0,7.8,0,11.7,0
		c0.4,2.3,1,4.6,1.2,7c0.2,2.5-0.4,5.1,0.1,7.5c1.2,4.8,0.8,9.7,0.9,14.6c0,0.7,0.5,1.4,0.7,2.2c0.4,1.6,0.6,3.2-1.2,4.6
		c-2.6,0-5.3,0-8.3,0c-0.3-0.4-0.8-0.8-1.3-1.3c-0.4-5.1,0.8-10.4-1.5-15.7c-1.2,4.1-2.4,8-3.6,12c-2.9,0-5.7,0-8.7,0
		c-2.7-3.8-2.6-8.7-5-13.7c-0.1,2-0.2,3.1-0.2,4.1c-0.1,4.9,0.4,9.8-1.3,14.6c-3,0-6.1,0-9.7,0c0.4-3.6-1-7.3,1-10.8
		c0.1-0.3,0-0.7,0-1C284.3,128.1,286.8,120.4,285.9,112.1z"/>
	<path class="st0" d="M259.8,112.1c4,0,7.4,0,11,0c0,11.5,0,23,0,34.6c-0.3,0.3-0.8,0.8-1.3,1.3c-3,0-5.9,0-9.1,0
		c-3.6-6.2-7.3-12.4-11-18.8c0.1,0-0.1,0-0.2,0c-0.1,0.1-0.3,0.2-0.3,0.4c0,6,0,12,0,18.2c-3.3,0-6.5,0-9.9,0c0-11.8,0-23.6,0-35.6
		c3.4,0,6.8,0,10.8,0c3.1,5.3,6.4,11,9.9,16.9C259.8,123.4,259.8,117.9,259.8,112.1z"/>
	<path class="st0" d="M90.1,135.6c-0.6-2.1,0.8-4.4-1.1-6.2c1.9-1.6,0.5-3.8,0.7-5.8c1.5-2.2,3-4.4,4.6-6.5
		c3.9-5.1,13.9-7.9,21.4-4.9c5,1.9,8.2,3.9,10.1,8.6c1.6,3.9,3.7,8.2,1.2,12.7c0.1,4.4-2.2,7.7-5.3,10.2c-3,2.5-6.6,4.2-10.7,4.3
		c-2.5,0.1-5,0-7.5,0c-0.7-1.7-2.4-0.6-3.5-1.3c-3.9-2.4-7.1-5.4-9.1-9.6c-0.2-0.4-0.4-0.8-0.7-1.2
		C90.3,135.7,90.1,135.6,90.1,135.6z M116,125.5c-2.5-2.9-5.3-5.4-8.5-4.7c-6.4,2.3-7,6.7-6.3,12.1c1.2,1.5,2.8,3.3,4.1,5
		c2.3,0,4.3,0,6.3,0c2.5-0.6,2.7-3.3,4.5-4.5C116,130.8,116,128.1,116,125.5z"/>
	<path class="st0" d="M198,123.2c1.4-1.9,2.8-4,4.3-6c4.1-5.3,14-7.8,21.4-5c6.2,2.3,10.5,6.9,12.2,13.2c2.3,8.6-3.6,18.9-12.3,21.6
		c-4.9,1.6-9.9,1.7-14.6-0.1c-5.3-2.1-8.8-6.4-10.9-11.6c-0.8-2-0.1-4.6-0.1-6.9C198,126.7,198,125.1,198,123.2z M218.8,121.1
		c-4.8-0.6-7.9,1.2-9.8,5.6c-0.8,4.4,0.3,8.4,4.7,11.2c3.7-0.1,8.3,1.1,10.1-5.1c0-2.1,0-4.9,0-7.8
		C222.2,123.7,220.4,122.3,218.8,121.1z"/>
	<path class="st0" d="M384.7,148c-4.7,0.7-8.8-1.8-12.6-4.6c-1.7-1.3-3.1-3.3-4-5.3c-1.1-2.4-1.5-5-2.1-7.6
		c-0.4-2.2,1.8-9.7,3.5-11.5c2.1-2.3,4-4.9,7-5.9c2.9-1.1,5.9-2.3,9.1-2.1c8.2,0.5,14.4,4.1,17.8,11.9c3.2,7.2,0.3,16-4,19.9
		c-3.5,3.2-7.7,5.5-12.8,5.1C386.2,147.9,385.7,148,384.7,148z M393,133.5c0-2.3,0-4.7,0-6.5c-1.9-4.6-5-6.6-9.5-5.8
		c-2.9,0.8-4.3,3.1-5.4,5.4c0,2.1,0,4.1,0,6.2c1.4,1.7,2.8,3.4,4,5c2.4,0,4.5,0,6.5,0C390.2,136.3,391.6,134.9,393,133.5z"/>
	<path class="st0" d="M327,129.1c-0.4-8,3.6-13.3,10.7-16.3c5-2.1,10-2.4,15.2-0.4c8.7,3.3,13.9,11.8,12,20.7
		c-1,4.3-2.9,8.5-6.7,11.1c-3.4,2.3-7.1,3.8-11.4,3.9c-3.8,0-7.3-0.4-10.5-2.4c-5.8-3.4-9.4-8.1-9.2-15.1
		C327,130.1,327,129.6,327,129.1z M348.3,137.8c3.7-0.9,4.4-3.5,5-6.5c0.5-2.6,0.8-2.6-1.5-8c-1.5-0.8-2.9-1.5-4.6-2.4
		c-2-0.2-4.7-0.4-6.3,1.7c-1.5,1.9-3.1,4.1-2.8,6.8C338.6,136.3,342.2,138.7,348.3,137.8z"/>
	<path class="st0" d="M64,125.5c0,2.7,0,5.4,0,8c1.4,1.4,2.9,2.9,4.4,4.4c2.7,0,5.5,0,8.4,0c0.5-0.8,0.9-1.5,1.7-2.8
		c-1.8,0-3,0-4.4,0c0-2.8,0-5.3,0-7.9c4.1,0,8.2,0,12.6,0c0.3,0.3,0.7,0.8,1.2,1.3c0.5,16.5,0.4,16.9-1.3,19.4c-2.4,0-4.8,0-7.3,0
		c-0.1-0.3-0.3-0.6-0.4-0.9s-0.2-0.6-0.5-1.1c-3.2,1.3-6.4,2.2-10,2.2c-7.8-0.1-14.1-7-15.7-13.6c-1.2-5-0.6-9.3,1.8-13.6
		c2.7-4.8,6.5-7.9,12.1-9.1c2.8-0.6,5.5-1.3,8.1-0.7c2.6,0.6,5.6,0.7,7.8,2.8c1,1,2.3,1.6,3.1,2.1c-1.6,2.8-3,5.4-4.4,8
		C74.1,119.6,68.4,119.5,64,125.5z"/>
	<path class="st0" d="M408.2,112c6,0,11.8-0.3,17.6,0.1c5.5,0.3,9.4,3.4,12.3,8c0.7,1.1,1.2,2.2,2,3.8c0,1.7-0.2,4,0,6.3
		c0.4,3.5-0.8,6.5-2.3,9.6c-2,4.3-5.9,6.2-10,7c-3.1,0.6-6.2,1.6-9.5,1.3c-3.3-0.4-6.6-0.1-10.1-0.1
		C408.2,136,408.2,124.3,408.2,112z M419.2,121.1c0,5.9,0,11.3,0,16.7c4.6,0.2,4.6,0.2,7.3-1.1c2.6-3.4,3-6.8,2.4-10.8
		c-1.3-1.5-2.8-3.3-4.1-4.8C422.6,121.1,421,121.1,419.2,121.1z"/>
	<path class="st0" d="M164.1,148c0-12.1,0-23.9,0-36c6.2,0,12.3-0.3,18.3,0.1c2.3,0.1,5,0.9,6.8,2.7c2.3,2.2,4.9,4.2,5.8,7.6
		c1.4,5.5,1.6,9.4-0.1,14.6c-1.2,3.6-3.9,6.1-7.2,8c-1.1,0.6-2.2,1.2-3.4,2c-3.2-0.4-6.3,1.4-9.8,1.1
		C171.2,147.7,167.8,148,164.1,148z M175.2,121.1c0,5.9,0,11.3,0,16.8c2.9,0.3,5.5,0.5,6.9-0.6c3.5-4.6,3.6-8.7,1.8-12.3
		c-1.4-1.6-2.5-2.8-3.4-3.9C178.6,121.1,177,121.1,175.2,121.1z"/>
	<path class="st0" d="M161.6,146.9c-0.2,0.1-0.6,0.6-1.1,1.1c-3.3,0-6.6,0-10.5,0c-1.6-3.4-3.2-7.1-4.9-10.8c-1.1,0-2,0-3.1,0
		c0,3.2,0,6.3,0,9.3c-0.5,0.5-0.9,0.9-1.4,1.4c-2.9,0-6.1,0-9.4,0c0-11.7,0-23.6,0-35.8c6.3,0,12.8-0.5,19.2,0.2
		c4.1,0.4,7.2,3.3,8.6,7.4c1.9,5.6,0.9,9-4.2,14.2C157,138,159.3,142.4,161.6,146.9z M142.3,121c0,2.3,0,4.7,0,7.4
		c2.1-0.5,3.9-1,5.7-1.5c0-1.7,0-3.1,0-4.3c-0.6-0.6-1-1.1-1.4-1.6C145.1,121,143.8,121,142.3,121z"/>
	<path class="st0" d="M454.8,123.6c1.9-4.2,3.6-7.9,5.2-11.5c4,0,7.8,0,12,0c-4,7.3-7.9,14.4-12.2,22.2c0,3.9,0,8.7,0,13.5
		c-3.3,0-6.4,0-10,0c-0.3-0.9-0.8-1.9-0.9-3c-0.1-4.1,0-8.3,0-12.1c-3.8-6.9-7.5-13.6-11.4-20.7c2.3-0.1,4.3-0.1,6.2-0.1
		c2,0,4,0,5.9,0C451.3,115.6,452.8,119.2,454.8,123.6z"/>
	<path class="st0" d="M409.7,82.5c-0.9,1.3-1.8,2.6-2.7,4c-1.2,0.4-2.5,0.8-4.2,1.4c-1.3-0.6-3-1.4-4.8-2.3c-1-2.6-2.1-5.2-3-8
		c-1-3.1,1.7-5.9,0.8-8.9c1.8-1.3,2.2-4,4.6-4.9c2.3,0.3,4.7,0.7,6.8,1c0.9,1.4,1.5,2.5,2.5,4.1c0.3,1.9,1.1,4.3,1.1,6.8
		C410.9,77.9,410.2,80.2,409.7,82.5z"/>
	<path class="st0" d="M107.1,86.8c0-3,0-5.8,0-8.7c1.9,0,3.7,0,5.8,0c0.7,1.3,1.5,2.8,2.3,4.4c-0.8,1.5-1.5,2.8-2.3,4.3
		C111.1,86.8,109.3,86.8,107.1,86.8z"/>
	<path class="st0" d="M111.9,71.8c-1.8,0-3.2,0-4.8,0c0-2.6,0-5,0-7.7c1.4,0,2.9,0,4.7,0c0.6,1,1.4,2.3,2.3,3.8
		C113.4,69.2,112.8,70.4,111.9,71.8z"/>
	<path class="st0" d="M299.9,67.6c1.6,5.2,1.6,10.5-0.1,15.9c-1,1.1-2.2,2.3-3.3,3.4c-2,0-4,0-6.3,0c0-7.5,0-15.1,0-22.8
		c2,0,4.1,0,6.4,0C297.6,65.1,298.7,66.3,299.9,67.6z"/>
	<path class="st0" d="M270.8,83.6c-1,1-2.1,2.2-3.2,3.4c-2,0-4,0-6.3,0c0-7.5,0-15.1,0-22.8c2,0,4.1,0,6.8,0c1.2,1.8,2.6,4.1,4,6.3
		C271.9,74.8,272.6,79.3,270.8,83.6z"/>
	<path class="st0" d="M53.3,78.9c-2.4,0-4.2,0-6,0c1.1-4.4,2.1-8.6,3.2-13.1C51.4,70.2,52.3,74.3,53.3,78.9z"/>
	<path class="st0" d="M238.6,65.6c1,4.8,1.8,8.9,2.6,13.2c-1.8,0-3.3,0-4.8,0c-0.1-0.1-0.4-0.4-0.4-0.7c0.3-2.5,0.1-5.4,1.2-7.5
		C238,69.1,237.5,67.5,238.6,65.6z"/>
	<path class="st0" d="M236.6,28.9c-0.3,0.5-0.7,1.6-1.5,2.4c-3.3,3.8-8.5,3.8-10.8-0.6c-1.8-3.5-3.3-7.4-1.9-11.7
		c0.8-2.5,1.3-5.1,3.2-8c1.7-0.3,4.1-0.8,5.8-1.2c4.8,2.4,5.2,6.6,6.4,10.3c0.4,1.1-0.1,2.6-0.3,3.8C237.4,25.4,237,26.9,236.6,28.9
		z"/>
	<path class="st0" d="M256.1,21c0-3.8,0-7.2,0-10.8c2.7-0.8,4.7,0.4,6.7,2c0,1.7,0,3.5,0,5.5c-1,1-2.2,2.1-3.4,3.3
		C258.5,21,257.5,21,256.1,21z"/>
	<path class="st0" d="M97.5,21c-1,0-2,0-3,0c-0.5-0.5-0.9-0.9-1.4-1.4c0-3.1,0-6.2,0-9.8c2.3,0.4,4.4,0.7,6.3,1
		C102,15.2,101.4,17.3,97.5,21z"/>
	<path class="st0" d="M124.8,25c-1.6,0-3,0-4.4,0c-0.1-0.4-0.4-0.9-0.3-1.3c0.3-2,0.1-4.4,1.1-6c1-1.6,0.4-3.2,1.4-5.2
		C123.4,17,125.7,20.7,124.8,25z"/>
	<path class="st0" d="M145,10.1c1.6,0,2.9,0,4.5,0c0.9,1.1,2,2.3,3.6,4.2c0.4,1.5-0.3,3.7-1.6,5.8c-3.1,1.8-3.1,1.8-6.4,1.8
		c0-1.9,0-3.9,0-5.8C145,14.2,145,12.4,145,10.1z"/>
	<path class="st0" d="M16.5,137.9c-1-1.1-2.1-2.1-3.4-3.4c-0.4-2.2-0.9-4.6-1.2-6.4c1.1-2.2,1.9-3.7,2.8-5.5
		c2.9-0.9,5.3-4.5,9.2-1.7c4.4-0.1,5.5,3.5,7.2,7c0.3,3.3-0.8,6.7-3.9,9C24,139.2,20.5,139.9,16.5,137.9z"/>
</g>
<g>
	<path class="st0" d="M474.2-389.2c17.5,0.5,31.8,6.4,43.2,18.7c7.9,8.5,12.8,18.6,14.6,30.1c1.6,10.2,0.3,20-3.4,29.6
		c-4.8,12.8-12.2,24.1-20.5,34.9c-7.8,10.3-16.3,19.9-25.1,29.3c-1.5,1.6-3,3.2-4.5,4.8c-2.4,2.4-4.7,2.4-7-0.1
		c-4.5-4.9-9-9.6-13.3-14.7c-6-7-11.9-14.1-17.5-21.4c-7.2-9.3-13.5-19.2-17.9-30.2c-2.5-6.1-4.5-12.4-4.9-19.1
		c-1-14.8,2.8-28.1,12-39.8c7.4-9.5,16.9-16.2,28.5-19.6c2.7-0.8,5.5-1.4,8.3-1.8C469.4-388.9,472.2-389,474.2-389.2z M520.3-331.5
		c0.1-25-20-45.4-45.6-45.3c-23.9,0.1-46.4,20.2-44.5,48.8c1.4,20.4,19.6,43.6,49,41.3C500.8-288.3,520.2-306.4,520.3-331.5z"/>
	<path class="st0" d="M735.5-324.8c-11.9,0-23.4,0-35.2,0c1.1,4,3.3,6.8,7,8.3c5,2.1,11.3,0.4,13.9-3.8c0.2-0.3,0.7-0.7,1.1-0.7
		c3.9,0,7.9,0,12,0c-1.3,4.5-3.6,8.2-7.2,10.9c-13.5,10.2-35,4.2-38.4-15c-2.3-13,5.5-24.9,17.9-27.9c13.6-3.3,26.7,5.7,28.4,19.7
		C735.4-330.6,735.4-327.8,735.5-324.8z M723.3-334.5c-0.6-5-5.9-8.9-11.6-8.8c-5.2,0.1-10.5,4.4-10.8,8.8
		C708.3-334.5,715.7-334.5,723.3-334.5z"/>
	<path class="st0" d="M798.7-338.4c0.5-4.1,2.4-7.3,5.3-9.8c4.8-4.2,10.7-5.6,16.9-5.5c3.6,0,7.1,0.5,10.5,1.9c6,2.6,9,7.2,9.2,13.7
		c0.1,4.5,0,9,0,13.5c0,3-0.1,6.1,0,9.1c0.2,3,0.6,6,0.9,9.2c-3.2,0-6.5,0-9.8,0c-0.3,0-0.8-0.5-0.9-0.9c-0.4-1-0.6-2-0.8-2.8
		c-2.3,1.2-4.5,2.8-7,3.5c-7.5,2.1-14.8,1.6-21.1-3.3c-6.2-4.9-6.7-14.8-1.2-19.8c2.9-2.6,6.5-3.6,10.2-4.1c4-0.6,8.2-1,12.2-1.7
		c1.4-0.2,2.9-0.8,4.2-1.5c2.4-1.4,2.4-4,0.2-5.6c-3.9-2.8-14.2-2.4-16.7,3.4c-0.1,0.3-0.5,0.7-0.7,0.7
		C806.3-338.4,802.6-338.4,798.7-338.4z M829.5-328.1c-2.4,0.7-4.7,1.4-7.1,1.9c-2.4,0.5-5,0.6-7.4,1.1c-1.5,0.3-3.1,0.8-4.4,1.7
		c-2.3,1.5-2.3,4.4,0,6c0.6,0.4,1.3,0.8,2,1c4.5,1.1,8.9,0.8,13.1-1.3c2.2-1.1,3.6-2.9,3.8-5.4C829.6-324.8,829.5-326.5,829.5-328.1
		z"/>
	<path class="st0" d="M607.8-329.4c0.1-11.4,7.3-20.9,17.8-23.6c13-3.3,26.4,5.5,28.5,18.9c1.6,10.3-1.3,19-10,25
		c-13.7,9.4-32.9,1.1-35.6-15.2C608.1-326,608-327.8,607.8-329.4z M619.6-329.3c0.2,1.3,0.3,2.5,0.5,3.8c1.1,5,5.2,9,9.7,9.4
		c5.1,0.5,9.4-2,11.5-6.9c2.1-5,1.8-9.9-1-14.6c-4.1-6.7-13-7-17.7-0.8C620.5-335.7,619.8-332.6,619.6-329.3z"/>
	<path class="st0" d="M560.8-306.4c0-20.8,0-41.4,0-62.2c4,0,7.8,0,11.8,0c0,17,0,34,0,51.2c10.4,0,20.6,0,30.9,0c0,3.8,0,7.3,0,11
		C589.3-306.4,575.1-306.4,560.8-306.4z"/>
	<path class="st0" d="M675.3-352.5c2.8,0,5.5,0,8.2,0c0,3.5,0,6.9,0,10.5c-2.7,0-5.4,0-8.1,0c-0.1,0.5-0.2,0.9-0.1,1.2
		c0,5.5-0.1,11.1,0.2,16.6c0.3,5,2.6,7,7.6,7.1c0.3,0,0.6,0,1,0c0,3.5,0,7,0,10.5c-8,1.3-17.1-1.9-19.7-12.2
		c-0.5-2.2-0.8-4.5-0.9-6.8c-0.1-5.4,0-10.9,0-16.5c-1.8,0-3.6,0-5.4,0c0-3.5,0-6.9,0-10.5c1.7,0,3.5,0,5.4,0c0-4,0-7.8,0-11.7
		c4,0,7.8,0,11.8,0C675.3-360.3,675.3-356.5,675.3-352.5z"/>
	<path class="st0" d="M743.5-306.4c0-0.7,0-1.2,0-1.7c0-14.2,0-28.5,0-42.7c0-1.4,0.3-1.9,1.8-1.8c2.7,0.1,5.4,0.1,8.2,0
		c1.1,0,1.5,0.4,1.4,1.5c-0.1,0.9,0,1.8,0,3c2.4-2.5,4.7-4.3,7.7-4.9c2-0.4,4.1-0.5,6.2-0.5c0.3,0,1,0.6,1,0.9c0.1,3.5,0,7,0,10.5
		c-1.3,0-2.4,0-3.5,0c-6.3,0.1-10.4,3.8-10.6,10c-0.3,7.9-0.2,15.8-0.3,23.7c0,0.7,0,1.4,0,2.1C751.4-306.4,747.6-306.4,743.5-306.4
		z"/>
	<path class="st0" d="M788.3-352.5c0,15.4,0,30.7,0,46.1c-3.8,0-7.7,0-11.7,0c0-0.5-0.1-1-0.1-1.5c0-14.3,0-28.7,0-43
		c0-1.3,0.3-1.8,1.7-1.7c2.8,0.1,5.7,0,8.5,0C787.2-352.5,787.7-352.5,788.3-352.5z"/>
	<path class="st0" d="M775.9-276.9c0-4.7,0-9.1,0-13.5c2.2,0,4.3,0,6.4,0c0,12.1,0,24.2,0,36.3c-2,0-4,0-6.1,0
		c0-0.7-0.1-1.4-0.1-2.1c-0.2,0-0.4,0-0.5,0.1c-5.7,5.1-15.6,2.9-18.5-6.1c-2.3-7,1.1-14.6,7.6-16.9c3.6-1.3,7-0.8,10.2,1.4
		C775-277.5,775.3-277.3,775.9-276.9z M775.9-266.5c0-3.3-2-6.2-4.8-7c-2.7-0.8-5.4,0.4-7,2.9c-1.7,2.6-1.5,6.4,0.4,8.8
		c1.8,2.2,4.4,3,6.8,2.1C774.1-260.7,775.9-263.4,775.9-266.5z"/>
	<path class="st0" d="M584.8-254c-2,0-3.9,0-5.9,0c-0.1-0.7-0.1-1.4-0.2-2.2c-7.5,4-12.7,3.5-16.8-1.7c-4-4.9-3.8-12.8,0.3-17.6
		c4.2-4.9,9.6-5.4,16.3-1.5c0-2.4,0-4.6,0-6.8c0-2.2,0-4.3,0-6.6c2.2,0,4.2,0,6.3,0C584.8-278.4,584.8-266.3,584.8-254z
		 M578.4-266.4c0-4-3-7.3-6.5-7.4c-3.6,0-6.5,3.3-6.5,7.3c0,3.9,2.9,7.1,6.5,7.1C575.5-259.4,578.4-262.5,578.4-266.4z"/>
	<path class="st0" d="M841.3-254.1c-2,0-3.9,0-6,0c0-0.7-0.1-1.4-0.2-2.3c-2.9,2.4-6,3.5-9.6,2.8c-3.5-0.7-6.3-2.6-8.1-5.7
		c-3.3-5.4-2.5-12.5,1.8-17c4-4.1,8.9-4.5,15.6-0.9c0-4.4,0-8.7,0-13.2c2.2,0,4.3,0,6.4,0C841.3-278.4,841.3-266.3,841.3-254.1z
		 M835-266.5c0-4-2.9-7.3-6.5-7.4c-3.6,0-6.5,3.3-6.5,7.3c0,3.9,2.9,7.1,6.5,7.1C832.1-259.4,835-262.5,835-266.5z"/>
	<path class="st0" d="M712.7-277.5c-2.2,0-4.1,0-6,0c-0.5,0-1.1-0.3-1.3-0.7c-2.2-3.5-5.4-5.2-9.5-4.6c-4,0.6-6.4,3.2-7.8,6.8
		c-1.7,4.6-1.2,9,1.8,13c4,5.2,11.2,5,14.9-0.4c0.7-1,1.3-1.4,2.6-1.4c1.7,0.1,3.4,0,5.1,0c-1.4,6.1-7.4,10.8-13.8,11.3
		c-11.3,0.9-18.9-8.8-18-19.2c0.7-7.4,4.2-12.9,11.5-15.5c8.4-2.9,17.4,1.5,20.2,9.5C712.5-278.3,712.6-278,712.7-277.5z"/>
	<path class="st0" d="M614.9-263.9c-6.3,0-12.5,0-18.9,0c0.8,2.5,2.3,4.2,4.7,4.7c2.4,0.5,4.6,0.1,6.4-1.9c0.4-0.5,1.2-0.8,1.8-0.9
		c1.8-0.1,3.6,0,5.4,0c-0.8,5.6-7.6,9.6-14.1,8.5c-7.3-1.2-12-8.3-10.6-16c1.3-7,8.6-11.7,15.6-10.1
		C612.1-278,616.6-270.8,614.9-263.9z M608.5-269.5c-0.4-3-3.7-4.9-6.5-4.7c-2.9,0.2-5.3,2.3-5.5,4.7
		C600.5-269.5,604.5-269.5,608.5-269.5z"/>
	<path class="st0" d="M788-271.4c0.3-2.5,1.5-4.3,3.2-5.7c3.9-3.2,11.4-3.7,15.7-1.1c2.9,1.7,3.9,4.4,4,7.5c0,2.3,0,4.6,0,6.9
		c0,3.2,0.1,6.5,0.2,9.8c-1.5,0-3.2,0.1-4.9-0.1c-0.6-0.1-1-1.1-1.5-1.8c-3.8,2.8-8.1,3.1-12.6,1.5c-4.1-1.5-6-5.5-4.8-9.5
		c0.8-2.5,2.6-3.9,5-4.5c2.7-0.6,5.6-0.9,8.3-1.4c1-0.2,2-0.5,2.9-0.9c1.4-0.8,1.4-2.3,0-3.2c-2.5-1.6-7-0.8-8.8,1.6
		c-0.2,0.3-0.6,0.7-0.9,0.7C791.9-271.4,790-271.4,788-271.4z M804.7-265.6c-2.2,0.4-4.2,0.8-6.2,1.2c-1.2,0.2-2.5,0.4-3.5,0.9
		c-0.7,0.3-1.4,1.3-1.4,2c0,0.6,0.8,1.6,1.5,1.8c1.6,0.3,3.4,0.5,5,0.3C804-260,805.2-261.7,804.7-265.6z"/>
	<path class="st0" d="M642.5-271.4c0.4-2.7,1.6-4.7,3.7-6c4.7-3.1,9.7-3.2,14.8-1c2.9,1.3,4.3,3.8,4.4,7c0,2.5,0,5,0,7.5
		c0.1,3.2,0.2,6.5,0.3,9.9c-1.5,0-3.2,0.1-4.9-0.1c-0.5-0.1-0.9-1.1-1.4-1.8c-2.2,1.8-5,2.7-8.1,2.4c-1.9-0.2-3.9-0.7-5.6-1.5
		c-3-1.4-4.3-4.3-3.9-7.7c0.3-3.2,2.4-5,5.3-5.7c2.7-0.7,5.6-0.9,8.3-1.4c1-0.2,2-0.4,2.8-0.9c1.4-0.8,1.3-2.3,0-3.2
		c-2.5-1.6-7.1-0.8-8.8,1.7c-0.2,0.3-0.7,0.7-1.1,0.7C646.3-271.4,644.5-271.4,642.5-271.4z M659.2-265.6c-2,0.4-3.9,0.7-5.7,1.1
		c-1.3,0.3-2.5,0.5-3.7,0.8c-1.1,0.3-2,1.1-1.6,2.2c0.2,0.8,1.1,1.8,1.8,1.9c1.5,0.3,3.2,0.4,4.7,0.2
		C658.5-260,659.8-261.9,659.2-265.6z"/>
	<path class="st0" d="M745.7-255.9c-4.8,3.2-9.1,3.3-12.7,0.4c-2.4-2-3.5-4.7-3.6-7.7c-0.2-5.1,0-10.2,0-15.4c0-0.1,0.1-0.3,0.2-0.5
		c2,0,4.1,0,6.3,0c0,4.1,0,8.1,0,12.1c0,0.9,0,1.8,0,2.7c0.1,3,1.8,4.8,4.6,4.9c2.9,0,5-1.9,5-4.9c0.1-4.2,0-8.3,0-12.5
		c0-2.7-0.3-2.4,2.4-2.4c4.1,0,4.1,0,4.1,4.2c0,6.4,0,12.8,0,19.2c0,0.6,0,1.1,0,1.8c-2.1,0-4.1,0-6.1,0
		C745.8-254.7,745.8-255.2,745.7-255.9z"/>
	<path class="st0" d="M636.8-254c-2.1,0-4.1,0-6.2,0c0-12.1,0-24.2,0-36.4c2,0,4,0,6.2,0C636.8-278.4,636.8-266.3,636.8-254z"/>
	<path class="st0" d="M723.4-254c-2.1,0-4.1,0-6.2,0c0-8.3,0-16.6,0-25.1c2,0,4.1,0,6.2,0C723.4-270.8,723.4-262.5,723.4-254z"/>
	<path class="st0" d="M777.1-358.5c1.2-1.9,2.3-3.5,3.3-5.1c1.5-2.2,2.9-4.5,4.4-6.6c0.3-0.4,0.8-0.9,1.3-0.9c4-0.1,8.1,0,12.5,0
		c-2.2,2.2-4.2,4.1-6.1,6c-1.9,1.9-3.8,3.8-5.9,5.7c-0.6,0.5-1.4,0.9-2.2,0.9C782.2-358.5,779.8-358.5,777.1-358.5z"/>
	<path class="st0" d="M717.1-282c0-2,0-3.8,0-5.8c2.1,0,4.1,0,6.3,0c0,1.9,0,3.8,0,5.8C721.4-282,719.3-282,717.1-282z"/>
	<path class="st0" d="M504-321.6c0-2.8,2.2-5,4.9-5c2.8,0,5,2.3,5,5.1c-0.1,2.9-2.3,5.1-5.1,5C506.1-316.6,504-318.8,504-321.6z"/>
	<path class="st0" d="M463.8-312.3c0-2.8,2.1-5,4.9-5c2.7,0,5.1,2.4,5.1,5.1c0,2.7-2.4,5-5,4.9C466-307.3,463.8-309.5,463.8-312.3z"
		/>
	<path class="st0" d="M450.3-305.1c0.1-2.8,2.5-5,5.2-4.8c2.7,0.1,4.9,2.5,4.8,5.2c-0.1,2.7-2.5,5-5.2,4.8
		C452.4-300.1,450.1-302.5,450.3-305.1z"/>
	<path class="st0" d="M489.9-313.5c0,2.8-2.1,5-4.9,5.1c-2.8,0.1-5-2.1-5.1-4.9c0-2.7,2.2-5,4.9-5.1
		C487.6-318.4,489.9-316.3,489.9-313.5z"/>
	<path class="st0" d="M488.3-349.9c-2.8,0-5.1-2.3-5.1-5c0-2.7,2.2-5,5-5c2.7,0,5,2.3,5,5C493.3-352.2,491-349.9,488.3-349.9z"/>
	<path class="st0" d="M495.3-299.9c-2.8,0-4.9-2.2-4.9-5c0-2.8,2.2-4.9,5-4.9c2.8,0,5,2.2,5,5C500.3-302.1,498-299.9,495.3-299.9z"
		/>
	<path class="st0" d="M474-304c2.8,0,5,2.1,5,4.9c0,2.8-2.1,5-4.9,5c-2.7,0-5-2.2-5.1-4.9C469-301.7,471.3-304,474-304z"/>
	<path class="st0" d="M493.1-322.2c-2.8,0-5-2.2-4.9-5c0-2.8,2.2-5,5-4.9c2.8,0,5,2.3,4.9,5C498.1-324.2,496-322.1,493.1-322.2z"/>
	<path class="st0" d="M451.2-318.8c0,2.8-2.2,5-4.9,5c-2.8,0-5-2.2-5-5c0-2.7,2.2-5,4.9-5C448.9-323.8,451.2-321.6,451.2-318.8z"/>
	<path class="st0" d="M460.4-329.4c2.8,0,5,2.1,5.1,4.8c0,2.7-2.1,5-4.9,5.1c-2.7,0.1-5-2.1-5.1-4.9
		C455.5-327.1,457.6-329.3,460.4-329.4z"/>
	<path class="st0" d="M443.5-328c-2.9,0-4.9-2.1-4.9-5c0-2.8,2.3-5,5-4.9c2.8,0,4.9,2.2,4.9,5C448.5-330.1,446.2-328,443.5-328z"/>
	<path class="st0" d="M473.6-330.5c-2.9,0-4.9-2-4.9-4.7c0-2.6,2.2-4.7,5-4.6c2.8,0,5,2.1,4.9,4.8
		C478.6-332.4,476.5-330.4,473.6-330.5z"/>
</g>
<line class="st1" x1="960" y1="-389" x2="960" y2="-240"/>
<g>
	<g>
		<g>
			<path class="st0" d="M1105.4-301.6c-0.9,0-1.9-0.4-2.5-1.2l-10.4-11.3c-1.4-1.5-1.3-3.8,0.2-5.2c0.7-0.6,1.6-1,2.5-1
				c1,0,2,0.4,2.7,1.2l7.8,8.5l23.6-23.6c0.7-0.7,1.6-1.1,2.6-1.1s1.9,0.4,2.6,1.1s1.1,1.6,1.1,2.6s-0.4,1.9-1.1,2.6l-26.3,26.4
				c-0.7,0.7-1.6,1.1-2.6,1.1L1105.4-301.6z"/>
			<path class="st0" d="M1107.5-281.3c-17.5,0-31.7-14.3-31.7-31.8s14.2-31.7,31.7-31.7c2.2,0,4,1.8,4,4s-1.8,4-4,4
				c-13.1,0-23.7,10.6-23.7,23.7s10.6,23.7,23.7,23.7s23.7-10.6,23.7-23.7c0-2.2,1.8-4,4-4s4,1.8,4,4
				C1139.3-295.6,1125-281.3,1107.5-281.3z"/>
		</g>
		<g>
			<g>
				<g>
					<g>
						<path class="st0" d="M1175.5-321.9c-7.9-1.6-11.2-2.9-11.2-6.1c0-3.8,5.1-5.6,9.8-5.6c5.8,0,9.7,3,9.7,7.5v0.4h11v-0.5
							c0-8.6-6.5-17.8-20.7-17.8c-12.4,0-20.8,6.4-20.8,15.8c0,11.7,10.3,14.7,20,16.6c10.1,2,12.1,4.1,12.1,6.8
							c0,4.9-6.1,6.6-11.3,6.6c-5.4,0-11.1-3.1-11.1-8.7v-0.5h-11v0.5c0,13,11.4,18.9,22.1,18.9c13.6,0,22.3-6.7,22.3-17.1
							C1196.3-316.8,1186.9-319.6,1175.5-321.9z"/>
						<path class="st0" d="M1237.8-295.7v-20.4c0-3.3-1.3-13.9-17.6-13.9c-10.2,0-17.8,5.4-18.9,13.4l-0.1,0.5h11l0.1-0.4
							c0.9-3.2,4.8-4.6,8.1-4.6c4.4,0,6.7,1.6,6.7,3.2c0,2.6-3.8,3.4-10.7,4.1c-8.2,0.7-16.5,2.7-16.5,12.3
							c0,9.1,8.2,13.2,16.4,13.2c4.9,0,8.9-1.3,11.7-3.9c0.2,1.2,0.5,2.1,0.9,2.9l0.1,0.3h10.2l-0.2-0.6
							C1238.4-291,1237.8-293.9,1237.8-295.7z M1227.5-307.4v2.8c0,5.9-7.3,6.6-10.4,6.6c-3.7,0-6.1-1.3-6.1-3.2
							c0-2.3,2.2-3.4,7.6-4C1222.8-305.7,1225.5-306.3,1227.5-307.4z"/>
						<path class="st0" d="M1265.6-329.8c-4.1,0-8,1.4-11,4v-20.6h-11.1v57.6h10.6v-3.5c3.1,2.8,7.1,4.3,11.5,4.3
							c10.7,0,19.1-9.2,19.1-20.9S1276.3-329.8,1265.6-329.8z M1264.2-319.6c5.4,0,9.6,4.7,9.6,10.8c0,5.9-4.2,10.5-9.6,10.5
							c-5.3,0-9.6-4.7-9.6-10.5C1254.6-314.8,1258.9-319.6,1264.2-319.6z"/>
						<path class="st0" d="M1308.2-330c-11.3,0-20.6,9.5-20.6,21.1c0,11.5,9.2,20.9,20.6,20.9c9.5,0,17-5.3,19.4-13.7l0.2-0.6h-11.7
							l-0.1,0.3c-1.4,2.7-4.4,4.3-7.9,4.3c-4.3,0-7.8-2.6-9.2-6.8h29.4v-0.4c0.7-7.6-1.1-14.1-5.3-18.7
							C1319.4-327.8,1314.1-330,1308.2-330z M1299.2-313.7c1.5-4,4.9-6.5,9-6.5c4.4,0,7.8,2.5,9.2,6.5H1299.2z"/>
						<path class="st0" d="M1356.4-329.8c-4.7-0.8-9.1,0.6-12.2,3.8v-3.1h-10.6v40.1h11v-19.6c0-2.8,0.3-6,2.4-8.2
							c1.9-2.1,4.8-2.8,9.2-2.3l0.5,0.1v-10.7L1356.4-329.8z"/>
					</g>
					<g>
						<g>
							<path class="st0" d="M1371.8-284.9c0,7.1-3.5,12.6-12.1,11.9v-6.4c1.9,0.2,3.2-0.2,4.2-1.1c0.9-0.9,1.4-2.4,1.4-4.5v-45h6.5
								V-284.9z M1371.8-336.1h-6.5v-7.8h6.5V-336.1z"/>
							<path class="st0" d="M1412.4-290.3h-6.3v-4.4c-2.7,3.2-6.7,5.2-11.6,5.2c-9.7,0-15.3-6.9-15.3-16.7V-330h6.5v24.2
								c0,6.3,3.5,10.5,9.8,10.5c5.9,0,10.3-4.4,10.3-10.3V-330h6.6V-290.3z"/>
							<path class="st0" d="M1456.5-292.2c0,12.7-8.2,21.4-20.4,21.4c-9.4,0-16.7-5-18.7-13.1h6.9c2.6,5.9,8.9,6.8,11.9,6.8
								c10.2,0,13.9-7.9,13.9-15v-4.2c-2.9,3.9-7.8,7-13.5,7c-11.4,0-19.9-9.3-19.9-20.8s8.5-20.9,19.9-20.9
								c5.9,0,10.9,3.3,13.7,7.3v-6.3h6.3v37.8L1456.5-292.2L1456.5-292.2z M1436.5-325c-7.5,0-13.3,6.6-13.3,14.9
								c0,8.1,5.9,14.7,13.3,14.7c7.3,0,13.5-6.6,13.5-14.7C1450-318.3,1443.8-325,1436.5-325z"/>
							<path class="st0" d="M1489.6-294.9c-2.9,3.5-7.5,5.5-13.6,5.5c-8.2,0-15.5-3.7-15.5-12.3c0-8.2,5.9-11.9,16.2-12.4
								c9.7-0.5,12.9-2.2,12.9-5.4s-3-5.5-9.7-5.5c-4.2,0-9.6,1.3-10.3,7.1h-6.8c0.5-7.9,7-13.1,17.2-13.1c10.6,0,16,4.9,16,12.3
								v21.9c0,2,0.5,4.9,1.2,6.5h-6.5C1490.1-291.5,1489.7-293,1489.6-294.9z M1489.5-311.7c-2.6,2.3-7.3,2.9-12,3.2
								c-8.6,0.5-10.6,3.5-10.6,6.9c0,4.3,4.2,6.2,9.2,6.2c6.8,0,13.2-2.9,13.3-10.1L1489.5-311.7L1489.5-311.7z"/>
							<path class="st0" d="M1521.8-324.5c-6.9-0.4-12.7,3.2-12.7,11.2v23h-6.6V-330h6.3v4.5c3-4.2,8.4-5.9,12.9-5.4L1521.8-324.5
								L1521.8-324.5z"/>
						</g>
					</g>
				</g>
			</g>
		</g>
	</g>
</g>
</svg>
