<?xml version="1.0" encoding="utf-8"?>
<!-- Generator: Adobe Illustrator 23.0.5, SVG Export Plug-In . SVG Version: 6.00 Build 0)  -->
<svg version="1.1" id="Capa_1" xmlns="http://www.w3.org/2000/svg" xmlns:xlink="http://www.w3.org/1999/xlink" x="0px" y="0px"
	 viewBox="0 0 1104.1 149.2" style="enable-background:new 0 0 1104.1 149.2;" xml:space="preserve">
<style type="text/css">
	.st0{fill:#636363;}
	.st1{fill:none;stroke:#636363;stroke-width:6;stroke-miterlimit:10;}
</style>
<g>
	<path class="st0" d="M475-522.3c-5.1,4.6-10.2,9.1-14.4,14.7c-2.3,3-5.3,5.5-8.1,8.2c-150.4,0-300.8,0-451.4,0c0-15.5,0-31,0-46.4
		c5-0.9,412.4-1.3,450.4-0.4c6.1,6.1,12.3,12.2,18.4,18.4c1.5,1.5,3.1,2.8,5,3.5C475-523.6,475-523,475-522.3z M83.7-511.3
		c1.4-4.9,2.6-9.4,4.1-14.9c0.6,7.5,1.1,14.1,1.6,20.8c1.8,0,3.7,0,5.7,0c0-3,0.1-5.9,0-8.7c-0.2-2.7-1-5.4-0.9-8.1
		c0.3-6-0.8-12-1.4-17.9c-2.2,0-4.3,0-6.6,0c-1.9,6.6-3.8,13.2-5.7,20.1c-1.9-6.9-3.8-13.5-5.7-20.1c-2.2,0-4.4,0-6.6,0
		c-0.4,2.1-1.1,4.1-1.1,6.1c0.3,8.7-1.8,17.3-1.1,26.1c0.1,0.8-0.5,1.6-0.7,2.5c2.3,0,4.5,0,6.8,0c0-3.4,0-6.5,0-9.7
		c0-4.9,0-4.9,1.7-8.8c1.2,4.3,2.3,8.6,3.5,12.7C79.6-511.3,81.6-511.3,83.7-511.3z M422.2-540.2c0,11.8,0,23.3,0,34.8
		c2,0,3.7,0,5.9,0c0-7.3,0-14.6,0-22.8c3.7,8.2,7,15.5,10.2,22.6c2.3,0,4.5,0,6.6,0c0-11.7,0-23.1,0-34.7c-2,0-3.7,0-5.9,0
		c0,7,0,13.9,0,22c-3.7-8.1-6.8-15-9.9-22C426.6-540.2,424.5-540.2,422.2-540.2z M160-540.3c0,11.6,0,23.1,0,34.8c2.1,0,4,0,6,0
		c0-3.9,0-7.5,0-11.2c0-3.5-0.1-7,0.2-11.6c3.8,8.3,7,15.6,10.3,22.8c2.2,0,4.3,0,6.4,0c0-11.6,0-23.1,0-34.6c-2,0-3.9,0-5.9,0
		c0,6.9,0,13.5,0,20.2c0,0.1-0.1,0.3-0.3,0.4c-0.1,0.1-0.2,0.1-0.3,0.1c-3.2-7-6.4-14-9.5-20.9C164.5-540.3,162.5-540.3,160-540.3z
		 M417-521.9c-0.1-3.5,0.2-6.4-1-9.2c-2-4.6-4.2-8.9-10.1-9.2c-2.2-1.9-4.4-0.4-6.7,0c-3,0.5-5.7,2-7,4.5c-1.8,3.2-3.7,6.6-3.3,10.6
		c0.2,2,0.1,4,0,6c-0.1,3.8,1.7,7,3.6,10c1.6,2.4,4.1,3.6,7.1,4.4c5.5,1.5,11.6-0.5,14.3-5.4C416.1-514.1,417.6-518.1,417-521.9z
		 M117.1-524c3.8-2.8,2.8-7,2.8-11.1c-2-1.8-4.1-3.6-5.8-5.1c-4.6,0-8.8,0-12.9,0c0,11.7,0,23.2,0,34.9c3.5,0,6.8,0,10.2,0
		c5.8,0,9.6-3.9,9.6-9.6c0-1.3,0-2.7,0-4C119.7-520.6,118.5-522.2,117.1-524z M300.9-506.7c3.3-2.9,5.3-6.5,6.5-11.2
		c1.3-5.2,0.1-12.3-2.5-16.9c-1.7-2.9-4.9-4.6-8.1-5.5c-2-0.5-4.3-0.1-6.5-0.1c-2.1,0-4.2,0-6.1,0c0,11.9,0,23.4,0,35
		C289.7-505.7,295.1-504.4,300.9-506.7z M255.1-505.3c4.7,0,9.1,0,13.2,0c1.8-1,3.6-1.7,5-2.9c4-3.2,4.9-7.9,5.7-12.6
		c0.6-3.5-1.4-6.6-1.2-8.5c-1.3-6.4-4.9-9-9.6-10.9c-4.1,0-8.6,0-13.1,0C255.1-528.6,255.1-517.1,255.1-505.3z M24.7-535.4
		c2.3,0.9,4.6,1.9,7,2.9c0.8-1.6,1.6-3.3,2.4-4.9c-1.6-3.3-5.3-2.4-7.9-3.7c-1.4-0.7-3.3,0.2-5.1,0.7c-4,1.3-7.7,2.8-9.5,7
		c-1.8,4.3-3.4,8.7-2.6,13.4c0.8,4.9,2.3,9.6,6.5,12.8c1.6,1.2,3.5,2,5.1,3c3,0,6,0.5,8-2.2c2.1,1.6,4.2,1.3,6.1,1.1
		c0-6.5,0-12.6,0-18.7c-3,0-5.9,0-8.7,0c0,2,0,3.8,0,5.8c1.3,0,2.4,0,3.7,0c0,1.6,0,3.1,0,5c-1.5,1-3.4,2.2-5.2,3.4
		c-2.2-1.1-4.2-2.1-5.9-3c-1-1.9-1.8-3.5-2.7-5.3c0-2.2,0.2-4.5,0-6.9c-0.3-2.8,1.3-4.9,2.5-7c0.9-1.6,2.9-2.3,5-2.3
		C23.8-534.4,24.1-535,24.7-535.4z M213.2-537.7c-1.8-1.9-4.1-2-6.1-2.9c-2.9-1.2-5.2-0.6-7.7,0.2c-2.7,0.9-5.2,2.2-7.2,4.3
		c-1.7,1.7-2,3.9-2.7,5.9c-2.5,6.5-1.5,12.7,1.7,18.7c1.9,3.6,5.2,5.8,8.8,6.9c2.6,0.8,5.8,0.5,8-2.1c2,1.6,4,1.4,6.3,1.1
		c0-6.1,0-12.1,0-18c0-0.1-0.1-0.3-0.2-0.4c-0.1-0.1-0.2-0.2-0.2-0.1c-3,0-5.8,0-8.6,0c0,2,0,3.8,0,5.9c1.3,0,2.6,0,3.8,0
		c0,1.7,0,3,0,4.8c-1.6,1.1-3.4,2.3-4.7,3.2c-0.9,0-1.1,0-1.3,0c-0.4-0.2-0.8-0.5-1.2-0.6c-5.3-1.8-7-5.8-6.8-11c0.1-2,0-4,0-5.4
		c1.1-2.1,2-3.8,2.9-5.6c2.2-0.8,4.3-1.6,6.3-2.3c2.3,0.9,4.5,1.8,6.6,2.7C211.4-534.1,212.2-535.7,213.2-537.7z M63-505.6
		c-3.1-11.8-6.2-23.3-9.3-34.7c-2.4,0-4.3,0-6.8,0c-2.1,5.5-3.2,11.5-4.6,17.3c-1.5,5.8-3.8,11.4-4.3,17.5c2.2,0,4,0,5.9,0
		c1.4-2.7,1.8-5.7,2.3-8.7c2.4,0,4.9,0,7.7,0c1.5,2.6,1.7,5.8,2.4,8.9c1.9,0,3.7,0,5.5,0C62.1-505.3,62.4-505.5,63-505.6z
		 M235-540.2c-3,11.6-6.1,23.1-9.2,34.8c2.2,0,3.9,0,6,0c1.9-2.5,1.5-5.8,2.5-8.7c2.5,0,4.9,0,7.3,0c2.2,2.6,2.2,5.9,2.5,8.7
		c2.5,0,4.6,0,6.8,0c-3.1-11.7-6.1-23.2-9.2-34.7C239.6-540.2,237.7-540.2,235-540.2z M344.7-540.3c-0.2,0-1.3,0.3-1.8-0.1
		c-2.7-2-5.2-0.7-7.7,0.1c-3.8,1.3-7.2,3.3-8.9,7.2c-2.7,6-3.2,12.4-0.9,18.5c3.8,10.2,15,13.6,23.5,6.9c-0.7-1.9-1.4-3.7-2.2-5.7
		c-4.1,3.4-8.3,4.1-12.6,0.3c-0.6-1.2-1.3-2.6-2-3.9c-1.5-2.7-0.8-5.7-1-8.6c-0.2-2.6,1.5-4.4,2.5-6.5c0.7-1.5,2.7-2,4.5-2.3
		c0.7-0.1,1.4-0.7,2.1-1c1.9,0.9,3.8,1.8,5.7,2.7c0.7-1.5,1.5-3.2,2.5-5.2C347.3-538.4,346.4-539.1,344.7-540.3z M365.2-505.4
		c0-9.9,0-19.3,0-28.9c2.6,0,5.1,0,7.4,0c1.7-2.3,1.7-2.3,1-5.8c-7.8,0-15.6,0-23.5,0c0,1.6,0,3.1,0,4.6c2.6,2.6,6.1,0.3,9,1.7
		c0,9.4,0,18.9,0,28.4C361.1-505.4,362.9-505.4,365.2-505.4z M126.1-505.5c6.2,0,12,0,17.8,0c0-1.6,0-3.1,0-4.9c-1-0.3-2-0.8-3-0.8
		c-2.6-0.1-5.2,0-7.9,0c0-9.9,0-19.3,0-28.8c-2.4,0-4.6,0-6.8,0C126.1-528.5,126.1-517.1,126.1-505.5z M383.8-505.4
		c0-11.9,0-23.3,0-35c-2.4,0.2-4.7-0.2-6.7,0.3c0,11.8,0,23.2,0,34.7C379.4-505.4,381.5-505.4,383.8-505.4z M148.2-540.2
		c0,11.9,0,23.3,0,34.6c2.1,0,4,0,5.7,0c0-11.7,0-23.1,0-34.6C151.9-540.2,150.1-540.2,148.2-540.2z M318.8-505.4
		c0-11.9,0-23.3,0-34.6c-2.1,0-4,0-5.7,0c0,11.7,0,23.1,0,34.6C315.1-505.4,316.9-505.4,318.8-505.4z"/>
	<path class="st0" d="M0-599.3c92.8,0,185.6,0,278.2,0c7.6,7.6,15.1,15.1,22.6,22.6c-7.2,7.7-14.6,15.5-22,23.4
		c-93,0-185.9,0-278.8,0C0-568.6,0-584,0-599.3z M225.8-594.3c-4.1,2.1-7,5-8.7,8.6c-1.7,3.6-1.6,13.7,0,17.5
		c1.2,2.9,2.7,5.8,5.4,7.7c1.2,0.8,2.8,1.3,4.8,2.1c1.6,0,3.9,0,6.1,0c1.2-0.7,2.2-1.6,3.4-1.9c2-0.6,3.4-2.2,4.3-3.8
		c1.8-3.4,3.5-7,3.1-11.2c-0.2-1.8,0.1-3.7-0.1-5.5c-0.3-3.3-1.2-6.5-3.7-8.9c-1.9-1.7-3.8-3.3-5.5-4.8
		C231.4-594.3,228.6-594.3,225.8-594.3z M249.2-594.4c0,12,0,23.5,0,35.2c2.4-0.3,4.7,0.2,7-0.4c0-4.4,0-8.5,0-12.6c1,0,1.8,0,2.5,0
		c1.9,4.3,3.8,8.6,5.7,13c2.2-0.4,4.5,0.3,6.8-0.4c-2.2-4.7-4.3-9.2-6.3-13.6c6.6-7,6.3-14.9,0.1-19.6
		C259.4-595.2,254.3-594,249.2-594.4z M51.8-594.2c0,5.2,0,10,0,14.8c-3.3,0-6.4,0-9.7,0c0-4.5,0-9,0-13.3c-0.6-0.6-1.1-1.1-1.5-1.5
		c-1.9,0-3.7,0-5.7,0c0,11.5,0,22.8,0,34.1c0,0.2,0.1,0.3,0.1,0.4c0.1,0.1,0.2,0.3,0.1,0.2c2.3,0,4.5,0,6.7,0c0-4.6,0-9.1,0-13.6
		c3.4,0,6.6,0,10,0c0,4.7,0,9.1,0,13.6c2.1,0,4,0,5.8,0c0-11.7,0-23.1,0-34.7C55.9-594.2,54.1-594.2,51.8-594.2z M87.2-594.3
		c0,12,0,23.4,0,34.9c2,0,3.7,0,5.7,0c0-3.9,0-7.7,0-11.3c0.6-0.6,1.1-1.1,1.6-1.6c0.6,0,1.3,0,2.1,0c2.2,4.1,3,9,5.7,13
		c2.2,0,4.2,0,6.2,0c0.1,0,0.3-0.2,0.2-0.1c-1.2-5.4-5.1-9.8-5.9-15.5c5.4-3.2,4.1-8.3,4.2-12.9c-2.5-4.8-6.5-6.7-11.7-6.5
		C92.6-594.2,90-594.3,87.2-594.3z M135-559.4c-1.5-6-2.8-11.9-4.3-17.7c-1.5-5.8-3.3-11.5-4.9-17.2c-2.3,0-4.3,0-6.6,0
		c-3,11.5-6.1,23.2-9.2,34.9c2.5,0,4.6,0,7,0c0.2-1.6,0-3.1,0.9-4.7c0.7-1.2-0.2-3.3,1.5-4.1c2.3,0,4.4,0,6.9,0
		c0.9,3,1.8,5.9,2.7,8.7C131.2-559.4,133-559.4,135-559.4z M151.5-594.1c-4.1,0-8.3,0-12.5,0c0,11.5,0,22.8,0,34.1
		c0,0.1,0.1,0.3,0.2,0.4c0.1,0.1,0.2,0.2,0.2,0.1c2,0,3.8,0,5.7,0c0-4,0-7.8,0-11.7c2.6,0,5.1,0,6.6,0c4-1.5,6-3.9,7.4-6.9
		c0-2,0.1-4,0-6c-0.2-4.2-1.7-7.5-5.9-9.2C152.5-593.5,152-593.9,151.5-594.1z M65.2-594.2c0,11.9,0,23.3,0,34.8
		c5.6,0,11.1,0,16.6,0c0-1.7,0-3.2,0-5c-3.6,0-7.1,0-10.6,0c0-3.1,0-6,0-9.1c2.7,0,5.1,0,7.4,0c0.5-0.5,0.9-0.9,1.3-1.3
		c0-1.4,0-2.9,0-4.7c-3,0-5.9,0-8.8,0c0-3.1,0-5.9,0-9c3.7,0,7.3,0,10.7,0c0-2.1,0-3.9,0-5.8C76.2-594.2,70.8-594.2,65.2-594.2z
		 M203.2-559.4c0-4.8,0-9.3,0-13.9c2.6,0,5.1,0,7.6,0c0-2.1,0-4,0-6.1c-2.7,0-5.1,0-7.6,0c0-3.1,0-6,0-9.1c3.4,0,6.5,0,9.5,0
		c0-2.1,0-4,0-5.8c-5.3,0-10.3,0-15.2,0c-0.5,0.5-1,1-1.3,1.3c0,11.2,0,22.3,0,33.5C198.4-559.4,200.5-559.4,203.2-559.4z
		 M23.1-559.4c0-9.8,0-19.3,0-29c2.7,0,5.3,0,7.7,0c0-2.1,0-3.9,0-5.6c-7.7,0-15.3,0-22.7,0c0,2,0,3.8,0,5.9c2.7,0,5.3,0,8,0
		c0,9.8,0,19.2,0,28.7C18.4-559.4,20.5-559.4,23.1-559.4z M175-559.4c0-5.1,0-9.7,0-13.5c3.3-7.5,6.3-14.2,9.5-21.3
		c-2.7,0-4.8,0-7.2,0c-1.5,4.1-3.1,8.4-5,13.5c-1.9-4.9-3.7-9.3-5.3-13.5c-2.5,0-4.6,0-7,0c2.4,5.5,4.6,10.9,7.1,16.1
		c1.2,2.6,2.1,5.2,2,8.2c-0.2,3.5,0,6.9,0,10.5C171.1-559.4,172.9-559.4,175-559.4z"/>
	<path class="st0" d="M0-472.3c1.3-0.5,2.6-1,3.9-1.5c-0.9-0.5-1.7-1.1-2.8-1.8c0.7-1.2,1.3-2.4,2-3.5c0.8-1.2,1.6-2.3,2.4-3.4
		c1.2,0.5,2.2,0.9,3.8,1.5c-0.9-1.8-1.5-2.9-2-3.9c2.4-1.4,4.8-2.9,7.3-4.3c0.6,1.2,1.3,2.5,2.2,4.4c0.1-1.8,0.2-3.1,0.4-4.4
		c2.9,0,5.7,0,8.7,0c0.1,0.8,0.3,1.8,0.5,3.3c0.9-1.3,1.6-2.3,2.1-3.1c2.2,1.3,4.4,2.7,6.8,4.1c-0.5,1.1-0.9,2.1-1.7,3.8
		c1.6-0.5,2.6-0.8,3.9-1.3c1.8,1.8,3,4.3,4.6,6.8c-0.9,0.6-1.9,1.1-3.1,1.9c1,0.2,1.8,0.3,2.9,0.5c0,2.8,0,5.7,0,8.6
		c-1,0.2-1.9,0.3-3.2,0.6c1.3,0.9,2.2,1.5,3.3,2.2c-1.3,2.3-2.7,4.8-4.2,7.3c-1.1-0.6-2.3-1.1-4.1-2.1c0.7,1.5,1,2.3,1.5,3.3
		c-1,2.9-4.3,3.3-6.7,5c-0.6-0.9-1.3-1.9-1.9-2.9c-0.5,1.3-1,2.6-1.4,3.9c-2.7,0-5.3,0-8,0c0-1.3,0-2.6,0-4.9
		c-1.2,1.8-1.9,2.8-2.5,3.8c-2.4-1.4-5-2.9-7.4-4.3c0.7-1,1.4-2,2.8-3.9c-2.3,1-3.5,1.5-4.9,2.2c-1.4-2.6-2.6-5.1-3.9-7.4
		c0.9-0.6,1.9-1.3,3.7-2.5c-2.3,0-3.6,0-4.9,0C0-467,0-469.6,0-472.3z M33-468.8c1.4-1.4,2.7-2.7,4-4c-1.7-0.6-3.4-1.3-5.2-1.9
		c0.4-2,0.8-3.8,1.3-6.3c-2.2,1.6-4,2.2-5.6,1.6c-0.7-1.8-1.2-3.3-1.8-5c-1.5,1.5-2.8,2.8-4.6,4.6c-1.3-1.3-2.7-2.7-4-4
		c-0.4,1.3-1,2.9-1.6,4.8c-1.7-0.4-3.3-0.8-5.5-1.3c0.4,2.1,0.7,3.9,1.1,5.8c-1.9,0.7-3.5,1.2-5.1,1.8c1.3,1.3,2.6,2.6,4.3,4.3
		c-1.5,1.2-3,2.4-4.8,3.8c2.1,0.7,3.8,1.3,5.6,1.9c-0.4,1.7-0.7,3.5-1.2,5.6c2.1-0.5,3.9-0.9,5.5-1.2c0.6,1.9,1.2,3.5,1.9,5.6
		c1.6-1.6,3-3,4.4-4.4c1.2,1.2,2.4,2.6,3.8,4c0.7-1.8,1.3-3.5,1.9-5c2-0.9,3.5,2.4,5.6,0.3c-0.5-1.7-2.1-3.4-1-4.8
		c2-0.8,3.4-1.4,5-2C35.6-466.2,34.4-467.4,33-468.8z"/>
	<path class="st0" d="M285.9-486.2c4.6,0,8.7,0,12.8,0c1.8,6,3.7,11.9,5.7,18.5c2-6.6,3.9-12.5,5.7-18.5c4,0,7.8,0,11.7,0
		c0.4,2.3,1,4.6,1.2,7c0.2,2.5-0.4,5.1,0.1,7.5c1.2,4.9,0.8,9.7,0.9,14.6c0,0.7,0.5,1.4,0.7,2.2c0.4,1.6,0.6,3.2-1.2,4.6
		c-2.6,0-5.3,0-8.3,0c-0.3-0.4-0.8-0.8-1.3-1.3c-0.4-5.1,0.8-10.4-1.5-15.7c-1.2,4.1-2.4,8-3.6,12c-2.9,0-5.7,0-8.7,0
		c-2.7-3.8-2.6-8.7-5-13.7c-0.1,2-0.2,3.1-0.2,4.1c-0.1,4.9,0.4,9.8-1.3,14.6c-3,0-6.1,0-9.7,0c0.4-3.6-1-7.3,1-10.8
		c0.1-0.3,0-0.7,0-1C284.3-470.2,286.8-477.9,285.9-486.2z"/>
	<path class="st0" d="M259.8-486.2c4,0,7.4,0,11,0c0,11.5,0,23,0,34.6c-0.3,0.3-0.8,0.8-1.3,1.3c-3,0-5.9,0-9.1,0
		c-3.6-6.2-7.3-12.4-11-18.8c0.1,0-0.1,0-0.2,0c-0.1,0.1-0.3,0.2-0.3,0.4c0,6,0,12,0,18.2c-3.3,0-6.5,0-9.9,0c0-11.8,0-23.6,0-35.6
		c3.4,0,6.8,0,10.8,0c3.1,5.3,6.4,11,9.9,16.9C259.8-474.9,259.8-480.3,259.8-486.2z"/>
	<path class="st0" d="M90.1-462.7c-0.6-2.1,0.8-4.4-1.1-6.2c1.9-1.6,0.5-3.8,0.7-5.8c1.5-2.2,3-4.4,4.6-6.5c3.9-5.1,13.9-7.9,21.4-5
		c5,1.9,8.2,3.9,10.1,8.6c1.6,3.9,3.7,8.2,1.2,12.7c0.1,4.4-2.2,7.7-5.3,10.2c-3,2.5-6.6,4.2-10.7,4.3c-2.5,0.1-5,0-7.5,0
		c-0.7-1.7-2.4-0.6-3.5-1.3c-3.9-2.4-7.1-5.4-9.1-9.6c-0.2-0.4-0.4-0.8-0.7-1.2C90.3-462.6,90.1-462.7,90.1-462.7z M116-472.7
		c-2.5-3-5.3-5.4-8.5-4.7c-6.4,2.3-7,6.7-6.3,12.1c1.2,1.5,2.8,3.3,4.1,5c2.3,0,4.3,0,6.3,0c2.5-0.6,2.7-3.3,4.5-4.5
		C116-467.5,116-470.2,116-472.7z"/>
	<path class="st0" d="M198-475.1c1.4-1.9,2.8-4,4.3-6c4.1-5.3,14-7.8,21.4-5c6.2,2.3,10.5,6.9,12.2,13.2c2.3,8.6-3.6,18.9-12.3,21.6
		c-4.9,1.6-9.9,1.7-14.6-0.1c-5.3-2.1-8.8-6.5-10.9-11.6c-0.8-2-0.1-4.6-0.1-6.9C198-471.5,198-473.2,198-475.1z M218.8-477.2
		c-4.8-0.6-7.9,1.2-9.8,5.6c-0.8,4.4,0.3,8.4,4.7,11.3c3.7-0.1,8.3,1.1,10.1-5.1c0-2.1,0-4.9,0-7.8
		C222.2-474.6,220.4-476,218.8-477.2z"/>
	<path class="st0" d="M384.7-450.3c-4.7,0.7-8.8-1.8-12.6-4.6c-1.7-1.3-3.1-3.3-4-5.3c-1.1-2.4-1.5-5-2.1-7.6
		c-0.4-2.2,1.8-9.7,3.5-11.5c2.1-2.3,4-4.9,7-6c2.9-1.1,5.9-2.3,9.1-2.1c8.2,0.5,14.4,4.1,17.8,11.9c3.2,7.2,0.3,16-4,20
		c-3.5,3.2-7.7,5.5-12.8,5.1C386.2-450.3,385.7-450.3,384.7-450.3z M393-464.8c0-2.3,0-4.7,0-6.5c-1.9-4.6-5-6.6-9.5-5.8
		c-2.9,0.8-4.3,3.1-5.4,5.4c0,2.1,0,4.1,0,6.3c1.4,1.7,2.8,3.5,4,5c2.4,0,4.5,0,6.5,0C390.2-462,391.6-463.4,393-464.8z"/>
	<path class="st0" d="M327-469.2c-0.4-8.1,3.6-13.3,10.7-16.4c5-2.1,10-2.4,15.2-0.4c8.7,3.3,13.9,11.8,12,20.7
		c-1,4.3-2.9,8.5-6.7,11.1c-3.4,2.3-7.1,3.8-11.4,3.9c-3.8,0-7.3-0.4-10.5-2.4c-5.8-3.4-9.4-8.1-9.2-15.1
		C327-468.2,327-468.7,327-469.2z M348.3-460.5c3.7-0.9,4.4-3.5,5-6.5c0.5-2.6,0.8-2.6-1.5-8c-1.5-0.8-2.9-1.5-4.6-2.4
		c-2-0.2-4.7-0.4-6.3,1.7c-1.5,1.9-3.1,4.1-2.8,6.8C338.6-462,342.2-459.5,348.3-460.5z"/>
	<path class="st0" d="M64-472.8c0,2.7,0,5.4,0,8c1.4,1.4,2.9,2.9,4.4,4.4c2.7,0,5.5,0,8.4,0c0.5-0.8,0.9-1.5,1.7-2.8
		c-1.8,0-3,0-4.4,0c0-2.8,0-5.3,0-7.9c4.1,0,8.2,0,12.6,0c0.3,0.3,0.7,0.8,1.2,1.3c0.5,16.5,0.4,16.9-1.3,19.4c-2.4,0-4.8,0-7.3,0
		c-0.1-0.3-0.3-0.6-0.4-0.9s-0.2-0.6-0.5-1.1c-3.2,1.3-6.4,2.2-10,2.2c-7.8-0.1-14.1-7-15.7-13.6c-1.2-5-0.6-9.3,1.8-13.6
		c2.7-4.8,6.5-7.9,12.1-9.1c2.8-0.6,5.5-1.3,8.1-0.7c2.6,0.6,5.6,0.7,7.8,2.8c1,1,2.3,1.6,3.1,2.1c-1.6,2.8-3,5.4-4.4,8
		C74.1-478.7,68.4-478.7,64-472.8z"/>
	<path class="st0" d="M408.2-486.3c6,0,11.8-0.3,17.6,0.1c5.5,0.3,9.4,3.4,12.3,8c0.7,1,1.2,2.2,2,3.8c0,1.7-0.2,4,0,6.3
		c0.4,3.5-0.8,6.5-2.3,9.6c-2,4.3-5.9,6.2-10,7c-3.1,0.6-6.2,1.6-9.5,1.3c-3.3-0.4-6.6-0.1-10.1-0.1
		C408.2-462.2,408.2-474,408.2-486.3z M419.2-477.2c0,5.9,0,11.3,0,16.7c4.6,0.2,4.6,0.2,7.3-1.1c2.6-3.4,3-6.8,2.4-10.8
		c-1.3-1.5-2.8-3.3-4.1-4.8C422.6-477.2,421-477.2,419.2-477.2z"/>
	<path class="st0" d="M164.1-450.3c0-12.1,0-23.9,0-36c6.2,0,12.3-0.3,18.3,0.1c2.3,0.1,5,0.9,6.8,2.7c2.3,2.2,4.9,4.2,5.8,7.6
		c1.4,5.5,1.6,9.4-0.1,14.6c-1.2,3.6-3.9,6.1-7.2,8c-1.1,0.6-2.2,1.2-3.4,2c-3.2-0.4-6.3,1.5-9.8,1.1
		C171.2-450.6,167.8-450.3,164.1-450.3z M175.2-477.2c0,5.9,0,11.3,0,16.8c2.9,0.3,5.5,0.5,6.9-0.6c3.5-4.6,3.6-8.7,1.8-12.3
		c-1.4-1.6-2.5-2.8-3.4-3.9C178.6-477.2,177-477.2,175.2-477.2z"/>
	<path class="st0" d="M161.6-451.4c-0.2,0.1-0.6,0.6-1.1,1.1c-3.3,0-6.6,0-10.5,0c-1.6-3.4-3.2-7.1-4.9-10.8c-1.1,0-2,0-3.1,0
		c0,3.2,0,6.3,0,9.3c-0.5,0.5-0.9,0.9-1.4,1.4c-2.9,0-6.1,0-9.4,0c0-11.7,0-23.6,0-35.8c6.3,0,12.8-0.5,19.2,0.2
		c4.1,0.4,7.2,3.3,8.6,7.4c1.9,5.6,0.9,9-4.2,14.2C157-460.3,159.3-455.9,161.6-451.4z M142.3-477.3c0,2.3,0,4.7,0,7.4
		c2.1-0.6,3.9-1,5.7-1.5c0-1.7,0-3.1,0-4.3c-0.6-0.6-1-1.1-1.4-1.6C145.1-477.3,143.8-477.3,142.3-477.3z"/>
	<path class="st0" d="M454.8-474.7c1.9-4.2,3.6-7.9,5.2-11.5c4,0,7.8,0,12,0c-4,7.3-7.9,14.4-12.2,22.2c0,3.9,0,8.7,0,13.5
		c-3.3,0-6.4,0-10,0c-0.3-0.9-0.8-2-0.9-3c-0.1-4.1,0-8.3,0-12.1c-3.8-7-7.5-13.6-11.4-20.7c2.3-0.1,4.3-0.1,6.2-0.1c2,0,4,0,5.9,0
		C451.3-482.6,452.8-479.1,454.8-474.7z"/>
	<path class="st0" d="M409.7-515.8c-0.9,1.3-1.8,2.6-2.7,4c-1.2,0.4-2.5,0.8-4.2,1.4c-1.3-0.6-3-1.4-4.8-2.3c-1-2.5-2.1-5.2-3-8
		c-1-3.1,1.7-5.9,0.8-8.9c1.8-1.4,2.2-4,4.6-4.9c2.3,0.3,4.7,0.7,6.8,1c0.9,1.4,1.5,2.5,2.5,4.1c0.3,1.9,1.1,4.3,1.1,6.8
		C410.9-520.4,410.2-518.1,409.7-515.8z"/>
	<path class="st0" d="M107.1-511.5c0-3,0-5.8,0-8.7c1.9,0,3.7,0,5.8,0c0.7,1.3,1.5,2.8,2.3,4.4c-0.8,1.5-1.5,2.8-2.3,4.3
		C111.1-511.5,109.3-511.5,107.1-511.5z"/>
	<path class="st0" d="M111.9-526.4c-1.8,0-3.2,0-4.8,0c0-2.6,0-5,0-7.7c1.4,0,2.9,0,4.7,0c0.6,1,1.4,2.4,2.3,3.8
		C113.4-529.1,112.8-527.9,111.9-526.4z"/>
	<path class="st0" d="M299.9-530.7c1.6,5.2,1.6,10.5-0.1,16c-1,1.1-2.2,2.3-3.3,3.4c-2,0-4,0-6.3,0c0-7.5,0-15.1,0-22.8
		c2,0,4.1,0,6.4,0C297.6-533.1,298.7-531.9,299.9-530.7z"/>
	<path class="st0" d="M270.8-514.7c-1,1-2.1,2.2-3.2,3.4c-2,0-4,0-6.3,0c0-7.5,0-15.1,0-22.8c2,0,4.1,0,6.8,0c1.2,1.9,2.6,4.1,4,6.3
		C271.9-523.4,272.6-519,270.8-514.7z"/>
	<path class="st0" d="M53.3-519.4c-2.4,0-4.2,0-6,0c1.1-4.4,2.1-8.6,3.2-13.1C51.4-528.1,52.3-524,53.3-519.4z"/>
	<path class="st0" d="M238.6-532.7c1,4.8,1.8,8.9,2.6,13.2c-1.8,0-3.3,0-4.8,0c-0.1-0.1-0.4-0.4-0.4-0.7c0.3-2.5,0.1-5.4,1.2-7.5
		C238-529.2,237.5-530.8,238.6-532.7z"/>
	<path class="st0" d="M236.6-569.4c-0.3,0.5-0.7,1.6-1.5,2.4c-3.3,3.8-8.5,3.8-10.8-0.6c-1.8-3.5-3.3-7.4-1.9-11.7
		c0.8-2.5,1.3-5.1,3.2-8c1.7-0.3,4.1-0.8,5.8-1.2c4.8,2.4,5.2,6.6,6.4,10.3c0.4,1.1-0.1,2.5-0.3,3.8
		C237.4-572.9,237-571.4,236.6-569.4z"/>
	<path class="st0" d="M256.1-577.3c0-3.8,0-7.2,0-10.8c2.7-0.8,4.7,0.4,6.7,2c0,1.7,0,3.5,0,5.5c-1,1-2.2,2.1-3.4,3.3
		C258.5-577.3,257.5-577.3,256.1-577.3z"/>
	<path class="st0" d="M97.5-577.3c-1,0-2,0-3,0c-0.5-0.5-0.9-0.9-1.4-1.4c0-3.1,0-6.2,0-9.9c2.3,0.4,4.4,0.7,6.3,1
		C102-583.1,101.4-581,97.5-577.3z"/>
	<path class="st0" d="M124.8-573.3c-1.6,0-3,0-4.4,0c-0.1-0.4-0.4-0.9-0.3-1.3c0.3-2,0.1-4.4,1.1-6c1-1.6,0.4-3.2,1.4-5.2
		C123.4-581.2,125.7-577.6,124.8-573.3z"/>
	<path class="st0" d="M145-588.2c1.6,0,2.9,0,4.5,0c0.9,1,2,2.3,3.6,4.2c0.4,1.5-0.3,3.7-1.6,5.8c-3.1,1.8-3.1,1.8-6.4,1.8
		c0-1.9,0-3.9,0-5.8C145-584.1,145-585.9,145-588.2z"/>
	<path class="st0" d="M16.5-460.3c-1-1-2.1-2.1-3.4-3.4c-0.4-2.2-0.9-4.6-1.2-6.4c1.1-2.2,1.9-3.7,2.8-5.5c2.9-0.9,5.3-4.5,9.2-1.7
		c4.4-0.1,5.5,3.5,7.2,7c0.3,3.3-0.8,6.7-3.9,9C24-459.1,20.5-458.4,16.5-460.3z"/>
</g>
<g>
	<g>
		<path class="st0" d="M56.6,0c17.5,0.5,31.8,6.4,43.2,18.7c7.9,8.5,12.8,18.6,14.6,30.1c1.6,10.2,0.3,20-3.4,29.6
			c-4.8,12.8-12.2,24.1-20.5,34.9c-7.8,10.3-16.3,19.9-25.1,29.3c-1.5,1.6-3,3.2-4.5,4.8c-2.4,2.4-4.7,2.4-7-0.1
			c-4.5-4.9-9-9.6-13.3-14.7c-6-7-11.9-14.1-17.5-21.4C15.8,102,9.5,92.1,5.1,81.2C2.6,75,0.6,68.8,0.2,62.1
			c-1-14.8,2.8-28.1,12-39.8C19.6,12.8,29,6.1,40.6,2.6c2.7-0.8,5.5-1.4,8.3-1.8C51.8,0.4,54.6,0.2,56.6,0z M102.7,57.7
			c0.1-25-20-45.4-45.6-45.3c-23.9,0.1-46.4,20.2-44.5,48.8c1.4,20.4,19.6,43.6,49,41.3C83.1,101,102.5,82.8,102.7,57.7z"/>
		<path class="st0" d="M317.9,64.4c-11.9,0-23.4,0-35.2,0c1.1,4,3.3,6.8,7,8.3c5,2.1,11.3,0.4,13.9-3.8c0.2-0.3,0.7-0.7,1.1-0.7
			c3.9,0,7.9,0,12,0c-1.3,4.5-3.6,8.2-7.2,10.9c-13.5,10.2-35,4.2-38.4-15c-2.3-13,5.5-24.9,17.9-27.9c13.6-3.3,26.7,5.7,28.4,19.7
			C317.7,58.7,317.7,61.5,317.9,64.4z M305.6,54.8c-0.6-5-5.9-8.9-11.6-8.8c-5.2,0.1-10.5,4.4-10.8,8.8
			C290.6,54.8,298,54.8,305.6,54.8z"/>
		<path class="st0" d="M381,50.8c0.5-4.1,2.4-7.3,5.3-9.8c4.8-4.2,10.7-5.6,16.9-5.5c3.6,0,7.1,0.5,10.5,1.9c6,2.6,9,7.2,9.2,13.7
			c0.1,4.5,0,9,0,13.5c0,3-0.1,6.1,0,9.1c0.2,3,0.6,6,0.9,9.2c-3.2,0-6.5,0-9.8,0c-0.3,0-0.8-0.5-0.9-0.9c-0.4-1-0.6-2-0.8-2.8
			c-2.3,1.2-4.5,2.8-7,3.5c-7.5,2.1-14.8,1.6-21.1-3.3c-6.2-4.9-6.7-14.8-1.2-19.8c2.9-2.6,6.5-3.6,10.2-4.1c4-0.6,8.2-1,12.2-1.7
			c1.4-0.2,2.9-0.8,4.2-1.5c2.4-1.4,2.4-4,0.2-5.6c-3.9-2.8-14.2-2.4-16.7,3.4c-0.1,0.3-0.5,0.7-0.7,0.7
			C388.6,50.9,384.9,50.8,381,50.8z M411.8,61.1c-2.4,0.7-4.7,1.4-7.1,1.9c-2.4,0.5-5,0.6-7.4,1.1c-1.5,0.3-3.1,0.8-4.4,1.7
			c-2.3,1.5-2.3,4.4,0,6c0.6,0.4,1.3,0.8,2,1c4.5,1.1,8.9,0.8,13.1-1.3c2.2-1.1,3.6-2.9,3.8-5.4C411.9,64.4,411.8,62.7,411.8,61.1z"
			/>
		<path class="st0" d="M190.1,59.8c0.1-11.4,7.3-20.9,17.8-23.6c13-3.3,26.4,5.5,28.5,18.9c1.6,10.3-1.3,19-10,25
			c-13.7,9.4-32.9,1.1-35.6-15.2C190.4,63.2,190.3,61.5,190.1,59.8z M202,59.9c0.2,1.3,0.3,2.5,0.5,3.8c1.1,5,5.2,9,9.7,9.4
			c5.1,0.5,9.4-2,11.5-6.9c2.1-5,1.8-9.9-1-14.6c-4.1-6.7-13-7-17.7-0.8C202.9,53.6,202.1,56.6,202,59.9z"/>
		<path class="st0" d="M143.1,82.9c0-20.8,0-41.4,0-62.2c4,0,7.8,0,11.8,0c0,17,0,34,0,51.2c10.4,0,20.6,0,30.9,0c0,3.8,0,7.3,0,11
			C171.6,82.9,157.4,82.9,143.1,82.9z"/>
		<path class="st0" d="M257.6,36.7c2.8,0,5.5,0,8.2,0c0,3.5,0,6.9,0,10.5c-2.7,0-5.4,0-8.1,0c-0.1,0.5-0.2,0.9-0.1,1.2
			c0,5.5-0.1,11.1,0.2,16.6c0.3,5,2.6,7,7.6,7.1c0.3,0,0.6,0,1,0c0,3.5,0,7,0,10.5c-8,1.3-17.1-1.9-19.7-12.2
			c-0.5-2.2-0.8-4.5-0.9-6.8c-0.1-5.4,0-10.9,0-16.5c-1.8,0-3.6,0-5.4,0c0-3.5,0-6.9,0-10.5c1.7,0,3.5,0,5.4,0c0-4,0-7.8,0-11.7
			c4,0,7.8,0,11.8,0C257.6,28.9,257.6,32.7,257.6,36.7z"/>
		<path class="st0" d="M325.9,82.9c0-0.7,0-1.2,0-1.7c0-14.2,0-28.5,0-42.7c0-1.4,0.3-1.9,1.8-1.8c2.7,0.1,5.4,0.1,8.2,0
			c1.1,0,1.5,0.4,1.4,1.5c-0.1,0.9,0,1.8,0,3c2.4-2.5,4.7-4.3,7.7-4.9c2-0.4,4.1-0.5,6.2-0.5c0.3,0,1,0.6,1,0.9c0.1,3.5,0,7,0,10.5
			c-1.3,0-2.4,0-3.5,0c-6.3,0.1-10.4,3.8-10.6,10c-0.3,7.9-0.2,15.8-0.3,23.7c0,0.7,0,1.4,0,2.1C333.7,82.9,329.9,82.9,325.9,82.9z"
			/>
		<path class="st0" d="M370.6,36.8c0,15.4,0,30.7,0,46.1c-3.8,0-7.7,0-11.7,0c0-0.5-0.1-1-0.1-1.5c0-14.3,0-28.7,0-43
			c0-1.3,0.3-1.8,1.7-1.7c2.8,0.1,5.7,0,8.5,0C369.5,36.7,370,36.7,370.6,36.8z"/>
		<path class="st0" d="M358.2,112.3c0-4.7,0-9.1,0-13.5c2.2,0,4.3,0,6.4,0c0,12.1,0,24.2,0,36.3c-2,0-4,0-6.1,0
			c0-0.7-0.1-1.4-0.1-2.1c-0.2,0-0.4,0-0.5,0.1c-5.7,5.1-15.6,2.9-18.5-6.1c-2.3-7,1.1-14.6,7.6-16.9c3.6-1.3,7-0.8,10.2,1.4
			C357.4,111.7,357.6,111.9,358.2,112.3z M358.2,122.7c0-3.3-2-6.2-4.8-7c-2.7-0.8-5.4,0.4-7,2.9c-1.7,2.6-1.5,6.4,0.4,8.8
			c1.8,2.2,4.4,3,6.8,2.1C356.4,128.5,358.2,125.9,358.2,122.7z"/>
		<path class="st0" d="M167.1,135.2c-2,0-3.9,0-5.9,0c-0.1-0.7-0.1-1.4-0.2-2.2c-7.5,4-12.7,3.5-16.8-1.7c-4-4.9-3.8-12.8,0.3-17.6
			c4.2-4.9,9.6-5.4,16.3-1.5c0-2.4,0-4.6,0-6.8c0-2.2,0-4.3,0-6.6c2.2,0,4.2,0,6.3,0C167.1,110.9,167.1,122.9,167.1,135.2z
			 M160.8,122.8c0-4-3-7.3-6.5-7.4c-3.6,0-6.5,3.3-6.5,7.3c0,3.9,2.9,7.1,6.5,7.1C157.8,129.9,160.8,126.7,160.8,122.8z"/>
		<path class="st0" d="M423.7,135.2c-2,0-3.9,0-6,0c0-0.7-0.1-1.4-0.2-2.3c-2.9,2.4-6,3.5-9.6,2.8c-3.5-0.7-6.3-2.6-8.1-5.7
			c-3.3-5.4-2.5-12.5,1.8-17c4-4.1,8.9-4.5,15.6-0.9c0-4.4,0-8.7,0-13.2c2.2,0,4.3,0,6.4,0C423.7,110.9,423.7,122.9,423.7,135.2z
			 M417.3,122.8c0-4-2.9-7.3-6.5-7.4c-3.6,0-6.5,3.3-6.5,7.3c0,3.9,2.9,7.1,6.5,7.1C414.4,129.9,417.3,126.7,417.3,122.8z"/>
		<path class="st0" d="M295,111.7c-2.2,0-4.1,0-6,0c-0.5,0-1.1-0.3-1.3-0.7c-2.2-3.5-5.4-5.2-9.5-4.6c-4,0.6-6.4,3.2-7.8,6.8
			c-1.7,4.6-1.2,9,1.8,13c4,5.2,11.2,5,14.9-0.4c0.7-1,1.3-1.4,2.6-1.4c1.7,0.1,3.4,0,5.1,0c-1.4,6.1-7.4,10.8-13.8,11.3
			c-11.3,0.9-18.9-8.8-18-19.2c0.7-7.4,4.2-12.9,11.5-15.5c8.4-2.9,17.4,1.5,20.2,9.5C294.9,111,294.9,111.2,295,111.7z"/>
		<path class="st0" d="M197.3,125.3c-6.3,0-12.5,0-18.9,0c0.8,2.5,2.3,4.2,4.7,4.7c2.4,0.5,4.6,0.1,6.4-1.9c0.4-0.5,1.2-0.8,1.8-0.9
			c1.8-0.1,3.6,0,5.4,0c-0.8,5.6-7.6,9.6-14.1,8.5c-7.3-1.2-12-8.3-10.6-16c1.3-7,8.6-11.7,15.6-10.1
			C194.4,111.2,198.9,118.4,197.3,125.3z M190.9,119.8c-0.4-3-3.7-4.9-6.5-4.7c-2.9,0.2-5.3,2.3-5.5,4.7
			C182.8,119.8,186.8,119.8,190.9,119.8z"/>
		<path class="st0" d="M370.3,117.8c0.3-2.5,1.5-4.3,3.2-5.7c3.9-3.2,11.4-3.7,15.7-1.1c2.9,1.7,3.9,4.4,4,7.5c0,2.3,0,4.6,0,6.9
			c0,3.2,0.1,6.5,0.2,9.8c-1.5,0-3.2,0.1-4.9-0.1c-0.6-0.1-1-1.1-1.5-1.8c-3.8,2.8-8.1,3.1-12.6,1.5c-4.1-1.5-6-5.5-4.8-9.5
			c0.8-2.5,2.6-3.9,5-4.5c2.7-0.6,5.6-0.9,8.3-1.4c1-0.2,2-0.5,2.9-0.9c1.4-0.8,1.4-2.3,0-3.2c-2.5-1.6-7-0.8-8.8,1.6
			c-0.2,0.3-0.6,0.7-0.9,0.7C374.2,117.8,372.3,117.8,370.3,117.8z M387,123.6c-2.2,0.4-4.2,0.8-6.2,1.2c-1.2,0.2-2.5,0.4-3.5,0.9
			c-0.7,0.3-1.4,1.3-1.4,2c0,0.6,0.8,1.6,1.5,1.8c1.6,0.3,3.4,0.5,5,0.3C386.3,129.3,387.5,127.5,387,123.6z"/>
		<path class="st0" d="M224.8,117.8c0.4-2.7,1.6-4.7,3.7-6c4.7-3.1,9.7-3.2,14.8-1c2.9,1.3,4.3,3.8,4.4,7c0,2.5,0,5,0,7.5
			c0.1,3.2,0.2,6.5,0.3,9.9c-1.5,0-3.2,0.1-4.9-0.1c-0.5-0.1-0.9-1.1-1.4-1.8c-2.2,1.8-5,2.7-8.1,2.4c-1.9-0.2-3.9-0.7-5.6-1.5
			c-3-1.4-4.3-4.3-3.9-7.7c0.3-3.2,2.4-5,5.3-5.7c2.7-0.7,5.6-0.9,8.3-1.4c1-0.2,2-0.4,2.8-0.9c1.4-0.8,1.3-2.3,0-3.2
			c-2.5-1.6-7.1-0.8-8.8,1.7c-0.2,0.3-0.7,0.7-1.1,0.7C228.7,117.8,226.9,117.8,224.8,117.8z M241.5,123.6c-2,0.4-3.9,0.7-5.7,1.1
			c-1.3,0.3-2.5,0.5-3.7,0.8c-1.1,0.3-2,1.1-1.6,2.2c0.2,0.8,1.1,1.8,1.8,1.9c1.5,0.3,3.2,0.4,4.7,0.2
			C240.8,129.2,242.1,127.3,241.5,123.6z"/>
		<path class="st0" d="M328,133.4c-4.8,3.2-9.1,3.3-12.7,0.4c-2.4-2-3.5-4.7-3.6-7.7c-0.2-5.1,0-10.2,0-15.4c0-0.1,0.1-0.3,0.2-0.5
			c2,0,4.1,0,6.3,0c0,4.1,0,8.1,0,12.1c0,0.9,0,1.8,0,2.7c0.1,3,1.8,4.8,4.6,4.9c2.9,0,5-1.9,5-4.9c0.1-4.2,0-8.3,0-12.5
			c0-2.7-0.3-2.4,2.4-2.4c4.1,0,4.1,0,4.1,4.2c0,6.4,0,12.8,0,19.2c0,0.6,0,1.1,0,1.8c-2.1,0-4.1,0-6.1,0
			C328.1,134.6,328.1,134.1,328,133.4z"/>
		<path class="st0" d="M219.1,135.2c-2.1,0-4.1,0-6.2,0c0-12.1,0-24.2,0-36.4c2,0,4,0,6.2,0C219.1,110.9,219.1,122.9,219.1,135.2z"
			/>
		<path class="st0" d="M305.8,135.2c-2.1,0-4.1,0-6.2,0c0-8.3,0-16.6,0-25.1c2,0,4.1,0,6.2,0C305.8,118.4,305.8,126.7,305.8,135.2z"
			/>
		<path class="st0" d="M359.4,30.7c1.2-1.9,2.3-3.5,3.3-5.1c1.5-2.2,2.9-4.5,4.4-6.6c0.3-0.4,0.8-0.9,1.3-0.9c4-0.1,8.1,0,12.5,0
			c-2.2,2.2-4.2,4.1-6.1,6c-1.9,1.9-3.8,3.8-5.9,5.7c-0.6,0.5-1.4,0.9-2.2,0.9C364.5,30.8,362.2,30.7,359.4,30.7z"/>
		<path class="st0" d="M299.5,107.2c0-2,0-3.8,0-5.8c2.1,0,4.1,0,6.3,0c0,1.9,0,3.8,0,5.8C303.7,107.2,301.7,107.2,299.5,107.2z"/>
		<path class="st0" d="M86.4,67.6c0-2.8,2.2-5,4.9-5c2.8,0,5,2.3,5,5.1c-0.1,2.9-2.3,5.1-5.1,5C88.4,72.7,86.3,70.4,86.4,67.6z"/>
		<path class="st0" d="M46.1,76.9c0-2.8,2.1-5,4.9-5c2.7,0,5.1,2.4,5.1,5.1c0,2.7-2.4,5-5,4.9C48.3,81.9,46.2,79.7,46.1,76.9z"/>
		<path class="st0" d="M32.6,84.1c0.1-2.8,2.5-5,5.2-4.8c2.7,0.1,4.9,2.5,4.8,5.2c-0.1,2.7-2.5,5-5.2,4.8
			C34.7,89.2,32.5,86.7,32.6,84.1z"/>
		<path class="st0" d="M72.2,75.8c0,2.8-2.1,5-4.9,5.1c-2.8,0.1-5-2.1-5.1-4.9c0-2.7,2.2-5,4.9-5.1C70,70.8,72.2,73,72.2,75.8z"/>
		<path class="st0" d="M70.6,39.4c-2.8,0-5.1-2.3-5.1-5c0-2.7,2.2-5,5-5c2.7,0,5,2.3,5,5C75.6,37,73.4,39.3,70.6,39.4z"/>
		<path class="st0" d="M77.6,89.4c-2.8,0-4.9-2.2-4.9-5c0-2.8,2.2-4.9,5-4.9c2.8,0,5,2.2,5,5C82.6,87.2,80.3,89.4,77.6,89.4z"/>
		<path class="st0" d="M56.4,85.2c2.8,0,5,2.1,5,4.9c0,2.8-2.1,5-4.9,5c-2.7,0-5-2.2-5.1-4.9C51.4,87.5,53.6,85.2,56.4,85.2z"/>
		<path class="st0" d="M75.4,67.1c-2.8,0-5-2.2-4.9-5c0-2.8,2.2-5,5-4.9c2.8,0,5,2.3,4.9,5C80.4,65,78.3,67.1,75.4,67.1z"/>
		<path class="st0" d="M33.5,70.4c0,2.8-2.2,5-4.9,5c-2.8,0-5-2.2-5-5c0-2.7,2.2-5,4.9-5C31.3,65.4,33.5,67.7,33.5,70.4z"/>
		<path class="st0" d="M42.7,59.9c2.8,0,5,2.1,5.1,4.8c0,2.7-2.1,5-4.9,5.1c-2.7,0.1-5-2.1-5.1-4.9C37.8,62.1,39.9,59.9,42.7,59.9z"
			/>
		<path class="st0" d="M25.8,61.2c-2.9,0-4.9-2.1-4.9-5c0-2.8,2.3-5,5-4.9c2.8,0,4.9,2.2,4.9,5C30.8,59.1,28.6,61.3,25.8,61.2z"/>
		<path class="st0" d="M56,58.8c-2.9,0-4.9-2-4.9-4.7c0-2.6,2.2-4.7,5-4.6c2.8,0,5,2.1,4.9,4.8C61,56.8,58.8,58.8,56,58.8z"/>
	</g>
	<line class="st1" x1="542.3" y1="0.2" x2="542.3" y2="149.2"/>
	<g>
		<g>
			<g>
				<path class="st0" d="M687.7,87.6c-0.9,0-1.9-0.4-2.5-1.2l-10.4-11.3c-1.4-1.5-1.3-3.8,0.2-5.2c0.7-0.6,1.6-1,2.5-1
					c1,0,2,0.4,2.7,1.2l7.8,8.5L711.6,55c0.7-0.7,1.6-1.1,2.6-1.1s1.9,0.4,2.6,1.1s1.1,1.6,1.1,2.6s-0.4,1.9-1.1,2.6l-26.3,26.4
					c-0.7,0.7-1.6,1.1-2.6,1.1L687.7,87.6z"/>
				<path class="st0" d="M689.8,107.9c-17.5,0-31.7-14.3-31.7-31.8s14.2-31.7,31.7-31.7c2.2,0,4,1.8,4,4s-1.8,4-4,4
					c-13.1,0-23.7,10.6-23.7,23.7s10.6,23.7,23.7,23.7s23.7-10.6,23.7-23.7c0-2.2,1.8-4,4-4s4,1.8,4,4
					C721.6,93.6,707.3,107.9,689.8,107.9z"/>
			</g>
			<g>
				<g>
					<g>
						<g>
							<path class="st0" d="M757.8,67.3c-7.9-1.6-11.2-2.9-11.2-6.1c0-3.8,5.1-5.6,9.8-5.6c5.8,0,9.7,3,9.7,7.5v0.4h11V63
								c0-8.6-6.5-17.8-20.7-17.8c-12.4,0-20.8,6.4-20.8,15.8c0,11.7,10.3,14.7,20,16.6c10.1,2,12.1,4.1,12.1,6.8
								c0,4.9-6.1,6.6-11.3,6.6c-5.4,0-11.1-3.1-11.1-8.7v-0.5h-11v0.5c0,13,11.4,18.9,22.1,18.9c13.6,0,22.3-6.7,22.3-17.1
								C778.6,72.4,769.2,69.6,757.8,67.3z"/>
							<path class="st0" d="M820.1,93.5V73.1c0-3.3-1.3-13.9-17.6-13.9c-10.2,0-17.8,5.4-18.9,13.4l-0.1,0.5h11l0.1-0.4
								c0.9-3.2,4.8-4.6,8.1-4.6c4.4,0,6.7,1.6,6.7,3.2c0,2.6-3.8,3.4-10.7,4.1c-8.2,0.7-16.5,2.7-16.5,12.3
								c0,9.1,8.2,13.2,16.4,13.2c4.9,0,8.9-1.3,11.7-3.9c0.2,1.2,0.5,2.1,0.9,2.9l0.1,0.3h10.2l-0.2-0.6
								C820.7,98.2,820.1,95.3,820.1,93.5z M809.8,81.8v2.8c0,5.9-7.3,6.6-10.4,6.6c-3.7,0-6.1-1.3-6.1-3.2c0-2.3,2.2-3.4,7.6-4
								C805.1,83.5,807.8,82.9,809.8,81.8z"/>
							<path class="st0" d="M847.9,59.4c-4.1,0-8,1.4-11,4V42.8h-11.1v57.6h10.6v-3.5c3.1,2.8,7.1,4.3,11.5,4.3
								c10.7,0,19.1-9.2,19.1-20.9S858.6,59.4,847.9,59.4z M846.5,69.6c5.4,0,9.6,4.7,9.6,10.8c0,5.9-4.2,10.5-9.6,10.5
								c-5.3,0-9.6-4.7-9.6-10.5C836.9,74.4,841.2,69.6,846.5,69.6z"/>
							<path class="st0" d="M890.5,59.2c-11.3,0-20.6,9.5-20.6,21.1c0,11.5,9.2,20.9,20.6,20.9c9.5,0,17-5.3,19.4-13.7l0.2-0.6
								h-11.7l-0.1,0.3c-1.4,2.7-4.4,4.3-7.9,4.3c-4.3,0-7.8-2.6-9.2-6.8h29.4v-0.4c0.7-7.6-1.1-14.1-5.3-18.7
								C901.7,61.4,896.4,59.2,890.5,59.2z M881.5,75.5c1.5-4,4.9-6.5,9-6.5c4.4,0,7.8,2.5,9.2,6.5H881.5z"/>
							<path class="st0" d="M938.7,59.4c-4.7-0.8-9.1,0.6-12.2,3.8v-3.1h-10.6v40.1h11V80.6c0-2.8,0.3-6,2.4-8.2
								c1.9-2.1,4.8-2.8,9.2-2.3l0.5,0.1V59.5L938.7,59.4z"/>
						</g>
						<g>
							<g>
								<path class="st0" d="M954.1,104.3c0,7.1-3.5,12.6-12.1,11.9v-6.4c1.9,0.2,3.2-0.2,4.2-1.1c0.9-0.9,1.4-2.4,1.4-4.5v-45h6.5
									V104.3z M954.1,53.1h-6.5v-7.8h6.5V53.1z"/>
								<path class="st0" d="M994.7,98.9h-6.3v-4.4c-2.7,3.2-6.7,5.2-11.6,5.2c-9.7,0-15.3-6.9-15.3-16.7V59.2h6.5v24.2
									c0,6.3,3.5,10.5,9.8,10.5c5.9,0,10.3-4.4,10.3-10.3V59.2h6.6V98.9z"/>
								<path class="st0" d="M1038.8,97c0,12.7-8.2,21.4-20.4,21.4c-9.4,0-16.7-5-18.7-13.1h6.9c2.6,5.9,8.9,6.8,11.9,6.8
									c10.2,0,13.9-7.9,13.9-15v-4.2c-2.9,3.9-7.8,7-13.5,7c-11.4,0-19.9-9.3-19.9-20.8s8.5-20.9,19.9-20.9
									c5.9,0,10.9,3.3,13.7,7.3v-6.3h6.3V97L1038.8,97L1038.8,97z M1018.8,64.2c-7.5,0-13.3,6.6-13.3,14.9
									c0,8.1,5.9,14.7,13.3,14.7c7.3,0,13.5-6.6,13.5-14.7C1032.3,70.9,1026.1,64.2,1018.8,64.2z"/>
								<path class="st0" d="M1071.9,94.3c-2.9,3.5-7.5,5.5-13.6,5.5c-8.2,0-15.5-3.7-15.5-12.3c0-8.2,5.9-11.9,16.2-12.4
									c9.7-0.5,12.9-2.2,12.9-5.4s-3-5.5-9.7-5.5c-4.2,0-9.6,1.3-10.3,7.1h-6.8c0.5-7.9,7-13.1,17.2-13.1c10.6,0,16,4.9,16,12.3
									v21.9c0,2,0.5,4.9,1.2,6.5h-6.5C1072.4,97.7,1072,96.2,1071.9,94.3z M1071.8,77.5c-2.6,2.3-7.3,2.9-12,3.2
									c-8.6,0.5-10.6,3.5-10.6,6.9c0,4.3,4.2,6.2,9.2,6.2c6.8,0,13.2-2.9,13.3-10.1L1071.8,77.5L1071.8,77.5z"/>
								<path class="st0" d="M1104.1,64.7c-6.9-0.4-12.7,3.2-12.7,11.2v23h-6.6V59.2h6.3v4.5c3-4.2,8.4-5.9,12.9-5.4L1104.1,64.7
									L1104.1,64.7z"/>
							</g>
						</g>
					</g>
				</g>
			</g>
		</g>
	</g>
</g>
</svg>
